<?xml version="1.0" standalone="no"?>
<!DOCTYPE svg PUBLIC "-//W3C//DTD SVG 20010904//EN"
 "http://www.w3.org/TR/2001/REC-SVG-20010904/DTD/svg10.dtd">
<svg version="1.0" xmlns="http://www.w3.org/2000/svg"
 width="2000.000000pt" height="2000.000000pt" viewBox="0 0 2000.000000 2000.000000"
 preserveAspectRatio="xMidYMid meet">
<metadata>
Created by potrace 1.14, written by Peter Selinger 2001-2017
</metadata>
<g transform="translate(0.000000,2000.000000) scale(0.100000,-0.100000)"
fill="#000000" stroke="none">
<path d="M17780 19302 c0 -7 -5 -10 -12 -6 -6 4 -8 3 -5 -3 4 -6 0 -13 -8 -17
-8 -3 -15 0 -15 7 0 8 -4 6 -10 -3 -5 -8 -10 -10 -10 -5 0 6 -5 2 -11 -7 -6
-11 -16 -15 -26 -11 -12 5 -14 3 -8 -7 5 -8 4 -11 -2 -7 -6 4 -23 0 -39 -8
-15 -7 -31 -12 -36 -9 -4 3 -5 -2 -2 -11 4 -9 3 -15 -2 -14 -20 3 -35 -2 -30
-10 3 -5 -1 -12 -10 -15 -10 -4 -13 -2 -8 7 6 8 3 8 -9 -1 -9 -8 -21 -11 -27
-7 -6 4 -9 1 -8 -5 2 -7 -6 -14 -17 -16 -11 -1 -25 -10 -31 -18 -6 -9 -17 -16
-23 -16 -7 0 -9 -5 -6 -10 4 -6 -4 -20 -17 -31 -13 -11 -17 -17 -9 -13 10 5
12 3 7 -5 -5 -7 -14 -10 -21 -7 -9 3 -11 -2 -8 -15 3 -11 2 -19 -3 -18 -21 4
-28 -2 -14 -11 13 -8 12 -10 -4 -10 -11 0 -17 -3 -13 -6 6 -6 -1 -17 -34 -53
-12 -14 -14 -23 -6 -37 9 -17 9 -17 -5 -6 -14 11 -16 10 -13 -5 1 -10 -3 -25
-10 -33 -19 -24 -25 -48 -12 -54 9 -3 9 -5 0 -5 -7 -1 -10 -8 -6 -18 5 -12 3
-14 -8 -8 -12 8 -12 6 0 -8 11 -14 11 -17 -1 -17 -9 0 -13 -11 -13 -32 1 -18
-3 -39 -9 -47 -9 -12 -8 -13 3 -6 11 6 13 3 9 -13 -4 -12 -2 -22 4 -22 5 0 6
-4 3 -10 -3 -5 0 -10 7 -10 9 0 9 -3 -2 -10 -13 -9 -13 -10 0 -10 12 -1 12 -3
-2 -14 -10 -7 -18 -17 -18 -21 0 -4 6 -2 14 4 11 9 13 1 12 -51 -2 -56 1 -66
23 -87 15 -13 21 -20 14 -17 -6 3 -15 1 -19 -5 -4 -7 -3 -9 2 -6 16 10 37 -10
31 -28 -4 -9 -11 -13 -17 -10 -5 3 -10 -1 -10 -9 0 -9 -7 -13 -19 -11 -14 3
-18 -1 -14 -11 3 -8 -1 -14 -9 -14 -18 0 -68 -23 -68 -32 0 -3 -13 -9 -30 -13
-16 -4 -30 -11 -30 -16 0 -6 -4 -8 -9 -4 -5 3 -13 0 -17 -6 -5 -8 -9 -8 -14 1
-6 9 -10 6 -15 -9 -3 -12 -11 -19 -16 -15 -6 3 -19 -2 -30 -12 -10 -9 -19 -14
-19 -9 0 4 -11 0 -25 -9 -14 -9 -30 -14 -34 -11 -5 3 -15 0 -23 -7 -7 -7 -22
-15 -33 -16 -11 -2 -23 -9 -27 -15 -5 -8 -8 -7 -8 3 -1 11 -4 10 -16 -5 -8
-11 -18 -20 -22 -20 -4 0 -6 -4 -4 -10 2 -5 -5 -1 -16 8 -19 18 -20 18 -18 0
0 -11 -6 -18 -16 -18 -9 0 -20 -4 -25 -9 -5 -5 -2 -6 6 -1 9 5 12 4 7 -3 -4
-7 -18 -12 -31 -12 -13 0 -29 -8 -34 -17 -7 -13 -10 -14 -11 -4 0 8 -10 2 -26
-15 -15 -16 -23 -23 -19 -15 6 11 4 13 -9 8 -10 -4 -20 -7 -22 -7 -3 0 -2 -5
2 -12 4 -7 3 -8 -4 -4 -6 4 -21 -3 -33 -15 -17 -17 -21 -18 -16 -6 5 15 3 16
-12 8 -10 -6 -21 -18 -25 -27 -5 -14 -9 -14 -23 -3 -9 8 -14 9 -10 3 4 -7 -2
-14 -14 -17 -13 -4 -18 -10 -14 -17 6 -9 2 -9 -13 -1 -17 9 -22 8 -27 -8 -4
-12 -12 -18 -21 -14 -7 3 -14 0 -14 -7 0 -6 -5 -8 -12 -4 -8 5 -9 1 -4 -12 5
-15 4 -16 -5 -7 -9 9 -16 7 -32 -8 -12 -11 -27 -17 -35 -14 -7 2 -11 1 -8 -4
3 -5 -2 -15 -11 -22 -9 -8 -14 -9 -10 -3 3 6 0 11 -8 11 -8 0 -12 -4 -9 -8 6
-11 -31 -30 -42 -21 -5 4 -2 -2 6 -12 11 -14 11 -18 2 -12 -8 5 -21 1 -33 -10
-19 -17 -20 -17 -14 2 5 15 4 15 -7 -3 -13 -21 -16 -23 -39 -23 -5 0 -8 -4 -5
-8 3 -5 -8 -8 -24 -7 -26 2 -28 0 -18 -14 7 -9 8 -13 3 -8 -4 4 -19 0 -33 -9
-13 -9 -21 -11 -18 -5 4 6 2 11 -3 11 -6 0 -11 -6 -11 -14 0 -9 -7 -13 -20
-11 -13 2 -20 -2 -20 -11 0 -8 -4 -13 -9 -10 -4 3 -19 -3 -31 -14 -18 -16 -25
-18 -32 -8 -5 9 -8 8 -8 -5 0 -10 -4 -15 -10 -12 -5 3 -10 1 -10 -4 0 -6 -8
-11 -17 -11 -24 -1 -55 -25 -45 -35 4 -5 -1 -5 -10 -2 -10 4 -18 2 -18 -3 0
-5 -7 -7 -15 -4 -8 4 -15 1 -15 -5 0 -6 -9 -11 -21 -11 -11 0 -17 -4 -14 -10
3 -6 -1 -7 -9 -4 -11 4 -16 0 -16 -12 0 -14 -2 -16 -9 -6 -7 11 -9 11 -14 -2
-4 -10 -18 -16 -37 -16 -16 0 -30 -5 -30 -11 0 -5 5 -7 12 -3 6 4 8 3 5 -3 -4
-6 -20 -10 -36 -9 -16 1 -29 -3 -28 -8 1 -6 -4 -10 -10 -8 -7 1 -13 -2 -13 -7
0 -6 -9 -8 -20 -6 -11 2 -23 -1 -26 -7 -5 -7 -2 -8 6 -3 9 5 11 4 6 -3 -4 -7
-14 -12 -22 -12 -10 0 -12 -5 -8 -12 5 -8 0 -7 -11 2 -17 14 -18 13 -12 -2 4
-12 2 -15 -7 -12 -7 3 -27 -7 -45 -21 -17 -15 -31 -24 -31 -20 0 4 -9 -3 -20
-16 -18 -21 -19 -22 -15 -4 5 18 4 18 -6 -1 -6 -12 -25 -25 -41 -28 -27 -5
-29 -8 -17 -23 13 -15 12 -15 -8 -4 -17 9 -23 9 -23 0 0 -6 -7 -9 -15 -5 -8 3
-14 0 -12 -7 1 -7 -8 -12 -19 -11 -15 0 -20 -4 -16 -14 3 -10 0 -13 -9 -10 -7
2 -20 -3 -29 -12 -8 -9 -11 -10 -6 -2 8 11 5 11 -17 1 -15 -7 -25 -14 -22 -17
3 -3 -5 -10 -18 -17 -15 -8 -24 -8 -29 -1 -5 7 -8 4 -8 -7 0 -10 -4 -16 -9
-12 -5 3 -12 1 -16 -5 -4 -6 -11 -8 -16 -5 -5 4 -9 1 -9 -4 0 -6 -9 -11 -20
-11 -14 0 -18 -5 -13 -17 6 -16 5 -17 -12 -3 -11 9 -16 10 -11 3 5 -9 0 -13
-14 -13 -12 0 -18 -4 -15 -10 3 -5 -3 -10 -13 -10 -20 0 -46 -23 -37 -32 3 -3
-6 -4 -20 -3 -19 3 -29 -4 -41 -23 -8 -15 -13 -19 -10 -10 3 12 1 15 -10 11
-7 -3 -14 -9 -14 -14 0 -5 -6 -9 -12 -9 -7 0 -23 -11 -36 -25 -13 -13 -31 -22
-42 -20 -11 2 -23 -1 -26 -7 -5 -7 -2 -8 7 -4 8 4 5 0 -5 -8 -15 -12 -22 -13
-27 -4 -6 9 -10 8 -15 -5 -3 -9 -13 -17 -21 -17 -9 0 -11 -5 -7 -12 6 -10 4
-10 -8 0 -13 10 -17 10 -22 -3 -4 -11 -13 -14 -26 -10 -14 4 -20 2 -18 -7 2
-7 -5 -12 -14 -12 -10 1 -18 -2 -18 -7 0 -4 -9 -13 -20 -19 -17 -9 -19 -8 -14
7 4 13 -1 10 -16 -7 -12 -14 -19 -19 -15 -13 4 9 1 11 -9 7 -9 -3 -13 -10 -10
-15 3 -6 -6 -8 -20 -5 -15 3 -24 1 -21 -4 6 -9 -33 -26 -50 -21 -5 1 -7 0 -3
-4 8 -9 -14 -35 -25 -28 -8 5 -38 -22 -32 -29 3 -3 -2 -5 -10 -6 -8 -1 -22 -3
-30 -4 -8 -1 -12 -4 -10 -8 2 -3 -5 -12 -17 -19 -15 -9 -18 -10 -13 0 6 8 4
10 -4 5 -7 -5 -10 -14 -7 -21 3 -8 -2 -11 -14 -8 -21 6 -73 -30 -62 -42 4 -4
-3 -2 -16 4 -21 11 -24 10 -29 -8 -5 -18 -21 -26 -45 -22 -13 2 -9 -17 5 -23
6 -3 2 -3 -10 -1 -12 3 -25 1 -28 -6 -6 -8 -10 -7 -16 2 -6 10 -9 9 -9 -7 0
-17 -5 -21 -25 -19 -14 2 -23 -2 -22 -8 1 -7 -6 -11 -17 -9 -11 2 -15 -1 -11
-7 3 -6 -1 -11 -9 -11 -9 0 -16 -4 -16 -10 0 -5 -5 -10 -11 -10 -5 0 -7 5 -4
10 10 16 -1 11 -16 -7 -12 -14 -12 -16 0 -8 10 5 12 4 7 -4 -4 -6 -18 -9 -32
-7 -14 3 -22 1 -19 -5 4 -5 -7 -12 -24 -15 -17 -4 -28 -10 -25 -15 3 -5 1 -9
-5 -9 -5 0 -22 -5 -38 -11 -15 -6 -29 -9 -30 -7 -1 2 -8 -5 -16 -16 -7 -10
-26 -18 -40 -18 -15 0 -30 -5 -34 -11 -3 -5 -1 -7 5 -3 6 3 13 2 16 -2 3 -5
-5 -9 -17 -9 -39 -1 -47 -3 -47 -14 0 -5 5 -7 12 -3 6 4 8 3 5 -3 -4 -6 -17
-8 -31 -6 -15 3 -31 -2 -44 -15 -15 -15 -23 -17 -32 -8 -10 8 -11 8 -7 0 4 -7
-6 -20 -21 -30 -15 -9 -33 -25 -40 -33 -8 -9 -11 -10 -7 -3 8 16 -3 15 -20 -2
-8 -7 -11 -17 -7 -22 4 -5 -2 -2 -12 6 -14 11 -18 11 -12 2 5 -9 1 -15 -13
-19 -12 -3 -21 -10 -21 -15 0 -6 -7 -8 -15 -4 -8 3 -15 1 -15 -5 0 -6 -5 -7
-12 -3 -6 4 -8 3 -5 -3 8 -12 -53 -44 -67 -36 -5 3 -6 1 -2 -5 3 -6 -7 -16
-24 -24 -16 -7 -30 -17 -30 -23 0 -5 -5 -3 -10 5 -6 10 -10 11 -10 3 0 -7 -6
-12 -12 -10 -7 1 -12 -4 -10 -11 1 -8 -2 -11 -7 -8 -5 4 -17 -1 -25 -10 -9 -9
-16 -11 -16 -4 0 6 -11 -2 -25 -17 -20 -22 -24 -24 -19 -8 5 16 4 17 -5 5 -6
-8 -16 -15 -23 -15 -7 0 -13 -4 -13 -10 0 -14 -48 -61 -59 -57 -5 2 -6 -4 -3
-12 4 -10 1 -13 -9 -9 -10 4 -12 0 -8 -11 4 -9 1 -16 -6 -16 -7 0 -23 -11 -35
-24 -17 -18 -20 -27 -11 -37 8 -9 8 -10 0 -6 -7 4 -15 0 -18 -9 -3 -8 -2 -13
3 -10 5 3 12 -1 15 -10 3 -8 2 -12 -4 -9 -6 4 -8 -3 -6 -17 2 -13 -2 -29 -8
-37 -8 -11 -8 -13 2 -7 6 4 12 3 12 -3 0 -5 -6 -12 -12 -14 -10 -4 -10 -6 0
-6 6 -1 12 -6 12 -12 0 -5 -6 -7 -12 -3 -8 5 -8 1 1 -10 10 -12 11 -20 4 -24
-5 -4 -9 -15 -7 -24 1 -10 -2 -18 -8 -18 -6 0 -5 -6 2 -15 7 -8 9 -15 4 -15
-5 0 -9 -38 -9 -85 0 -47 4 -85 9 -85 5 0 3 -7 -4 -15 -10 -12 -10 -15 1 -15
11 0 11 -3 -1 -11 -10 -7 -11 -12 -4 -15 7 -3 9 -18 4 -45 -6 -34 -5 -39 8
-34 12 4 12 3 3 -9 -13 -15 -19 -136 -7 -154 4 -7 3 -12 -3 -12 -5 0 -8 -12
-5 -27 4 -22 3 -24 -10 -14 -12 10 -14 9 -9 -8 3 -12 -1 -29 -8 -38 -10 -12
-10 -14 -1 -9 7 4 12 1 12 -9 0 -10 5 -13 12 -9 7 5 8 3 3 -5 -4 -7 -15 -11
-25 -8 -12 3 -17 0 -14 -8 3 -7 0 -16 -5 -20 -6 -3 -9 -11 -6 -16 4 -5 -2 -9
-12 -10 -16 0 -16 -1 -2 -7 12 -5 14 -13 8 -27 -4 -11 -8 -14 -8 -6 -1 11 -4
11 -16 1 -12 -10 -15 -9 -15 4 0 10 -4 14 -10 11 -5 -3 -10 -1 -10 6 0 8 -5 8
-17 -2 -10 -7 -15 -10 -11 -5 11 13 -14 34 -34 28 -10 -2 -25 1 -33 8 -8 7
-15 9 -15 4 0 -5 -4 -3 -8 3 -5 7 -20 14 -35 15 -15 1 -27 6 -27 10 0 4 -13 8
-29 8 -17 0 -31 6 -35 16 -5 13 -9 14 -21 4 -11 -9 -15 -10 -15 -1 0 8 -8 10
-20 6 -12 -4 -20 -2 -20 5 0 7 -8 10 -20 7 -14 -3 -20 0 -20 10 0 13 -3 13
-15 3 -12 -10 -15 -10 -15 0 0 7 -6 10 -14 7 -8 -3 -22 0 -32 8 -13 9 -23 10
-31 3 -9 -7 -13 -7 -13 2 0 8 -3 10 -6 7 -4 -3 -16 -2 -27 4 -15 8 -18 8 -12
-1 5 -8 3 -11 -6 -8 -8 3 -13 12 -11 19 1 9 -3 8 -11 -3 -17 -21 -28 -23 -21
-4 4 10 -3 14 -23 13 -15 0 -37 4 -47 8 -14 6 -17 5 -11 -4 6 -10 3 -11 -14
-2 -11 7 -21 14 -21 17 0 3 5 2 12 -2 7 -5 8 -3 3 6 -6 10 -11 10 -20 -4 -10
-12 -14 -13 -18 -4 -3 9 -21 12 -51 11 -25 -1 -46 2 -46 8 0 5 -5 9 -11 9 -5
0 -8 -4 -5 -8 3 -5 -1 -9 -9 -9 -8 0 -12 4 -9 8 2 4 0 10 -6 14 -5 3 -10 -2
-10 -12 0 -15 -2 -15 -9 -4 -5 8 -17 16 -26 17 -9 1 -19 5 -22 8 -3 3 -15 0
-26 -6 -17 -8 -19 -8 -14 5 5 14 2 15 -20 6 -23 -8 -24 -8 -13 6 11 14 10 14
-13 6 -18 -7 -27 -7 -31 2 -3 9 -5 8 -5 -1 -1 -8 -6 -10 -13 -5 -11 6 -36 11
-85 15 -7 1 -13 6 -13 11 0 5 -6 4 -13 -2 -8 -6 -17 -8 -20 -5 -4 4 -30 8 -58
10 -29 1 -55 8 -60 15 -5 8 -8 6 -12 -7 -5 -18 -5 -18 -6 0 -1 16 -3 17 -18 5
-9 -8 -14 -9 -10 -3 5 8 -8 12 -41 13 -26 1 -55 1 -65 2 -11 0 -15 5 -10 12 4
7 0 6 -10 -2 -11 -9 -17 -10 -17 -2 0 6 -5 11 -11 11 -5 0 -7 -4 -4 -10 10
-17 -7 -11 -22 8 -14 16 -14 16 -9 -3 6 -20 6 -20 -9 -1 -8 11 -15 15 -15 10
0 -5 -9 -10 -20 -10 -11 0 -20 5 -20 11 0 5 -5 3 -10 -5 -5 -8 -10 -10 -10 -4
0 6 -7 11 -15 11 -8 0 -15 -4 -15 -8 0 -5 -7 -6 -15 -3 -8 4 -12 11 -9 16 4 6
-5 3 -19 -7 -24 -15 -26 -15 -36 2 -8 14 -10 15 -11 3 0 -13 -1 -13 -10 0 -5
8 -10 11 -10 5 0 -5 -11 -10 -25 -10 -16 0 -23 5 -20 13 7 19 -5 14 -25 -10
l-19 -23 6 25 c6 24 6 24 -10 8 -12 -11 -30 -16 -55 -15 -20 2 -49 0 -64 -4
-15 -4 -30 -4 -32 0 -3 4 -26 5 -52 4 -30 -2 -51 2 -56 10 -5 7 -8 8 -8 1 0
-15 -60 -16 -60 -1 0 8 -3 9 -8 1 -8 -12 -51 -12 -71 0 -10 6 -12 6 -7 -2 9
-15 1 -15 -27 0 -20 10 -21 10 -8 -6 12 -14 12 -16 -3 -10 -9 3 -16 11 -16 16
0 6 -8 4 -17 -3 -15 -12 -16 -12 -10 6 7 20 7 20 -8 1 -8 -11 -15 -14 -15 -7
0 7 -5 9 -12 4 -19 -11 -38 -12 -38 -2 0 6 -7 6 -18 0 -10 -5 -30 -8 -45 -7
-15 2 -27 -1 -27 -6 0 -5 -4 -6 -10 -3 -5 3 -10 0 -10 -7 0 -10 -2 -10 -8 0
-9 13 -77 20 -88 9 -3 -3 -17 -1 -31 4 -22 8 -24 7 -19 -8 6 -14 4 -14 -15 3
-17 14 -21 15 -17 4 4 -11 0 -16 -12 -16 -10 0 -16 5 -13 10 4 5 1 6 -7 1 -18
-11 -51 -15 -137 -17 -51 -1 -70 -5 -63 -13 6 -7 -9 -10 -51 -10 -34 0 -63 -3
-65 -7 -3 -5 -13 -4 -23 2 -12 6 -22 5 -29 -2 -6 -6 -21 -12 -34 -12 -13 -1
-28 -5 -35 -9 -6 -4 -14 -3 -17 1 -6 9 -35 10 -51 0 -6 -3 -18 -4 -28 -2 -10
1 -21 -4 -24 -12 -4 -11 -8 -10 -22 4 -9 10 -13 13 -8 6 10 -16 -7 -21 -70
-19 -28 1 -50 -2 -47 -7 3 -5 10 -5 16 -2 6 4 8 2 5 -3 -4 -6 -21 -10 -38 -9
-16 1 -32 -1 -35 -5 -2 -4 -14 -6 -25 -4 -13 3 -19 0 -16 -8 3 -8 -7 -12 -32
-11 -20 1 -39 -3 -43 -9 -6 -9 -8 -9 -8 1 0 6 -5 12 -11 12 -5 0 -7 -4 -4 -10
4 -6 -5 -10 -19 -10 -14 0 -26 -4 -26 -9 0 -5 -9 -7 -20 -4 -15 4 -20 0 -20
-13 0 -14 -3 -15 -12 -6 -9 9 -16 8 -32 -6 -11 -9 -16 -12 -13 -5 6 10 -11 11
-33 3 -3 -1 -9 -2 -13 -1 -5 1 -5 -4 -1 -10 5 -9 2 -10 -9 -6 -9 3 -18 1 -21
-6 -3 -9 -5 -9 -5 1 -1 6 -6 12 -12 12 -5 0 -8 -4 -4 -9 3 -5 1 -12 -4 -15 -5
-4 -13 -1 -17 5 -5 9 -11 7 -21 -6 -9 -13 -13 -14 -13 -5 0 9 -5 8 -16 -6 -8
-10 -12 -13 -8 -5 4 9 2 12 -7 9 -8 -3 -13 -10 -12 -15 1 -5 -11 -7 -28 -5
-19 3 -29 0 -29 -8 0 -10 -3 -10 -15 0 -12 10 -16 9 -21 -4 -5 -12 -10 -14
-19 -6 -9 8 -14 6 -19 -5 -4 -13 -10 -14 -26 -5 -16 9 -22 8 -26 -5 -3 -8 -10
-13 -14 -10 -5 3 -11 1 -15 -5 -4 -7 -14 -6 -28 2 -20 10 -21 10 -8 -6 12 -14
12 -16 -4 -10 -12 5 -16 4 -12 -3 10 -16 -17 -10 -39 7 -11 9 -15 10 -10 3 4
-7 2 -13 -3 -13 -6 0 -11 8 -11 18 0 13 -2 14 -9 4 -7 -11 -9 -11 -14 2 -8 21
-27 20 -42 -1 -9 -13 -14 -13 -20 -3 -6 9 -4 11 5 5 9 -6 11 -4 6 4 -5 7 -14
10 -22 7 -8 -3 -11 0 -7 11 3 8 0 19 -8 24 -8 5 -9 9 -3 9 6 0 11 6 11 14 0 8
-6 12 -13 9 -6 -2 -15 1 -20 8 -5 8 -3 10 7 4 8 -5 3 4 -11 20 -17 19 -21 29
-12 32 6 3 10 9 6 14 -3 5 -7 18 -9 30 -3 16 0 19 13 14 13 -5 14 -4 5 6 -10
10 -9 15 5 26 9 8 11 11 3 7 -9 -4 -12 -2 -9 7 3 8 -2 20 -11 27 -9 8 -10 11
-3 7 7 -4 12 0 12 9 0 9 -4 16 -8 16 -5 0 -9 15 -10 33 -2 55 -5 67 -16 67 -5
0 -1 7 10 15 16 13 16 14 2 9 -13 -4 -18 -1 -18 11 0 10 5 14 13 10 6 -4 5 -1
-3 7 -8 7 -14 27 -13 46 1 17 -3 32 -9 32 -5 0 -2 7 7 16 11 11 13 20 5 28 -5
7 -8 15 -5 18 3 2 6 25 7 49 0 24 6 47 12 51 8 5 7 8 -1 8 -17 0 -17 27 0 33
9 4 8 6 -2 6 -11 1 -11 4 -1 17 11 13 10 16 -9 21 -17 4 -19 8 -9 14 9 6 7 9
-9 9 -34 0 -28 29 7 41 16 6 27 15 24 20 -3 5 -1 9 5 9 5 0 9 12 7 28 -1 18
-7 27 -19 26 -9 -1 -16 1 -15 5 2 20 -4 32 -23 42 -17 9 -20 8 -14 -3 5 -7 -8
4 -28 25 -20 21 -41 35 -47 32 -6 -4 -9 -3 -8 2 2 4 -1 9 -5 10 -5 1 -17 11
-26 22 -10 12 -24 21 -30 21 -7 0 -9 5 -6 10 3 6 -2 10 -13 10 -10 0 -28 9
-39 19 -11 11 -29 21 -39 23 -11 2 -24 10 -31 18 -7 8 -13 11 -13 7 0 -4 -9 1
-21 12 -12 11 -30 18 -40 16 -10 -2 -18 1 -16 8 1 6 -8 12 -20 13 -42 3 -44 4
-38 14 3 6 0 11 -7 11 -27 3 -34 4 -54 16 -12 7 -24 9 -28 6 -3 -3 -6 1 -6 10
0 9 -4 17 -10 17 -5 0 -7 -8 -3 -17 3 -12 -1 -10 -12 5 -9 13 -23 21 -30 19
-6 -3 -19 3 -28 14 -15 16 -28 21 -53 18 -3 0 -12 7 -18 17 -8 10 -20 15 -29
11 -9 -3 -18 0 -21 9 -3 8 -12 14 -19 14 -23 0 -78 31 -84 47 -5 12 -7 12 -14
1 -7 -10 -9 -10 -9 0 0 6 -9 12 -21 12 -15 0 -19 5 -15 15 4 13 2 14 -14 5
-16 -9 -20 -8 -20 5 0 9 -4 13 -10 10 -5 -3 -10 -2 -10 4 0 6 -7 7 -17 4 -11
-4 -14 -3 -9 5 4 8 0 12 -12 12 -10 0 -28 9 -39 19 -14 13 -24 16 -31 9 -7 -7
-12 -3 -17 12 -6 18 -9 20 -16 9 -6 -10 -9 -11 -9 -1 0 6 -6 12 -14 12 -8 0
-16 5 -18 10 -2 6 -13 12 -25 13 -12 0 -19 5 -17 9 5 8 -5 11 -38 11 -10 0
-18 6 -18 14 0 8 -5 11 -11 7 -6 -3 -15 0 -20 7 -7 11 -9 11 -9 1 0 -10 -4
-10 -16 2 -14 14 -35 21 -56 17 -4 0 -5 5 -2 13 4 9 -2 13 -20 11 -15 -2 -26
2 -26 8 0 7 -5 5 -10 -3 -8 -13 -10 -12 -10 3 0 10 -4 16 -9 12 -5 -3 -16 2
-24 10 -9 8 -27 15 -40 15 -14 0 -28 7 -31 16 -3 8 -11 12 -17 9 -5 -4 -17 1
-25 11 -9 11 -13 13 -9 7 4 -9 1 -11 -9 -7 -9 3 -13 11 -10 16 4 6 -4 5 -16
-2 -15 -8 -20 -8 -16 -1 4 6 0 11 -8 11 -9 0 -16 5 -16 11 0 6 -7 9 -15 5 -8
-3 -15 -1 -15 5 0 6 -6 9 -13 6 -15 -6 -39 18 -29 29 4 5 -1 2 -11 -5 -15 -12
-17 -12 -12 1 4 11 -2 14 -25 12 -16 -1 -27 2 -24 7 5 8 -9 13 -28 10 -5 0 -8
3 -8 8 0 5 -13 12 -30 16 -16 4 -33 11 -36 17 -5 7 -2 8 6 3 8 -5 11 -4 6 3
-4 6 -13 9 -21 5 -8 -3 -15 0 -15 5 0 6 -9 9 -20 7 -13 -3 -18 0 -14 7 5 7 -2
9 -19 6 -23 -5 -25 -3 -16 15 8 14 8 18 0 12 -7 -4 -19 -1 -28 7 -12 9 -15 9
-9 1 4 -7 2 -13 -3 -13 -6 0 -11 6 -11 14 0 8 -8 13 -17 12 -10 -2 -20 0 -23
5 -3 4 -12 9 -20 11 -8 2 -21 11 -28 20 -7 9 -21 15 -32 13 -13 -3 -20 2 -20
12 0 11 -6 14 -21 10 -14 -4 -19 -1 -16 7 3 7 -5 13 -20 14 -14 1 -38 13 -55
27 -16 14 -33 23 -37 21 -4 -3 -14 4 -21 14 -11 16 -17 17 -29 7 -12 -9 -13
-9 -7 1 4 7 1 12 -9 12 -9 0 -13 5 -10 10 4 6 -5 10 -20 10 -15 0 -24 4 -20
10 3 6 -3 10 -14 10 -11 0 -23 5 -26 10 -9 15 -27 12 -19 -2 4 -8 3 -10 -2 -5
-5 5 -10 13 -10 18 -3 22 -5 23 -14 9 -7 -11 -10 -11 -10 -2 0 7 -4 10 -10 7
-6 -3 -10 0 -10 7 0 11 -2 10 -9 0 -7 -11 -9 -10 -15 3 -3 9 -11 13 -17 10 -5
-4 -17 1 -25 11 -9 11 -12 12 -8 4 7 -13 6 -13 -9 -1 -10 8 -20 11 -23 8 -4
-3 -13 1 -22 9 -8 9 -23 13 -33 11 -11 -3 -22 0 -26 5 -4 7 -1 8 7 3 9 -5 11
-4 6 4 -6 9 -11 9 -24 -1 -9 -7 -13 -8 -9 -2 4 7 -5 14 -24 18 -17 3 -28 10
-25 15 3 5 -3 7 -14 4 -12 -3 -20 0 -20 7 0 9 -4 9 -17 -1 -9 -8 -14 -9 -11
-4 4 6 -7 18 -23 28 -17 9 -27 13 -24 7 3 -5 0 -12 -6 -16 -7 -4 -9 -3 -6 3 8
12 -20 39 -30 30 -3 -4 -12 1 -20 11 -8 9 -12 11 -8 5 9 -19 -4 -16 -23 5 -10
10 -13 12 -9 6 6 -9 2 -11 -13 -7 -11 3 -23 10 -27 16 -4 6 -1 7 8 2 8 -5 11
-4 6 1 -5 5 -18 9 -30 9 -13 1 -21 6 -19 14 1 7 -2 10 -8 6 -5 -3 -10 0 -10 7
0 10 -2 10 -9 -1 -7 -11 -9 -11 -14 0 -5 12 -7 11 -17 -1 -9 -13 -10 -12 -8 5
2 13 -2 19 -12 17 -8 -2 -20 5 -27 14 -9 12 -13 13 -13 4 0 -8 -6 -6 -18 7 -9
11 -23 18 -29 16 -7 -3 -13 0 -13 6 0 5 -9 8 -20 6 -11 -2 -19 1 -17 8 1 7 -8
11 -20 11 -13 -1 -20 3 -17 7 3 5 0 9 -6 9 -6 0 -8 5 -4 13 6 9 5 9 -7 0 -12
-10 -18 -9 -29 7 -10 14 -17 16 -27 8 -9 -7 -13 -7 -13 1 0 7 -4 9 -10 6 -6
-3 -10 1 -10 9 0 9 -8 16 -19 16 -11 0 -21 5 -23 10 -2 6 -13 12 -25 13 -12 0
-20 3 -18 6 3 2 0 10 -6 17 -8 10 -16 11 -29 4 -15 -8 -17 -6 -13 13 4 18 3
19 -6 7 -10 -13 -14 -12 -30 7 -14 17 -21 19 -30 10 -7 -7 -12 -7 -11 -2 4 18
0 35 -7 34 -5 -1 -25 -1 -46 0 -28 1 -36 4 -31 14 4 6 -2 4 -13 -6 -23 -20
-39 -11 -20 11 10 13 9 14 -11 3 -17 -9 -22 -9 -22 1 0 9 -3 9 -10 -2 -8 -12
-10 -12 -16 4 -5 14 -9 15 -15 4 -7 -11 -9 -11 -9 1 0 8 -6 11 -16 7 -10 -4
-13 -2 -8 6 5 8 1 9 -12 4 -10 -4 -15 -4 -11 0 8 8 -38 34 -60 34 -8 0 -12 3
-9 8 2 4 -9 15 -25 25 -18 10 -28 12 -24 4 4 -6 1 -5 -7 4 -7 9 -19 14 -26 11
-7 -2 -12 0 -11 5 4 20 -2 24 -18 12 -11 -10 -14 -10 -9 -1 4 7 2 12 -4 12 -6
0 -9 4 -6 8 3 5 -5 8 -17 7 -12 -1 -28 5 -34 14 -11 14 -14 14 -23 1 -8 -13
-10 -12 -10 3 0 10 -5 15 -10 12 -6 -4 -17 -1 -25 5 -8 7 -21 10 -29 7 -8 -3
-20 1 -26 9 -7 8 -21 14 -32 14 -10 0 -16 5 -13 10 3 6 -1 10 -10 10 -11 0
-15 5 -12 14 4 10 0 12 -14 9 -11 -3 -21 1 -25 11 -3 9 -11 13 -18 9 -6 -4 -4
2 4 12 9 11 10 16 3 11 -18 -10 -17 18 1 33 7 6 12 23 10 37 -1 14 0 23 3 20
11 -11 33 32 26 50 -5 13 -3 15 7 9 10 -6 12 -4 7 9 -4 9 -3 15 1 12 4 -3 14
4 21 16 7 11 8 17 2 13 -6 -3 -11 -2 -11 3 0 6 6 12 14 15 9 4 12 14 9 26 -3
12 0 28 7 36 7 8 8 15 3 15 -5 0 -9 9 -10 20 -1 11 2 20 8 20 5 0 9 7 9 16 0
8 -4 13 -9 10 -11 -7 -9 13 3 33 5 8 4 16 -4 21 -9 5 -9 9 -1 14 6 4 8 13 4
19 -4 7 -7 26 -8 43 0 17 -6 38 -13 47 -8 9 -11 20 -8 26 3 5 0 12 -6 14 -10
4 -10 6 -1 6 7 1 10 8 6 17 -5 13 -7 13 -14 2 -7 -10 -9 -10 -9 0 0 6 -7 12
-15 12 -8 0 -15 5 -15 10 0 6 -7 10 -16 10 -13 0 -14 3 -5 14 10 12 8 13 -9 9
-16 -4 -19 -2 -13 12 4 12 3 16 -4 12 -13 -8 -23 14 -23 51 0 21 -2 24 -10 12
-8 -12 -10 -10 -10 9 0 15 -5 21 -14 18 -9 -4 -12 2 -10 18 1 16 -2 22 -11 19
-7 -3 -16 0 -21 7 -4 8 -3 10 4 5 7 -4 12 -2 12 3 0 10 -14 15 -33 12 -5 -1
-6 3 -3 8 4 5 0 16 -8 24 -8 8 -12 17 -9 21 4 3 -1 6 -10 6 -9 0 -16 6 -14 13
1 6 -6 11 -15 11 -10 -1 -15 2 -12 7 3 5 0 9 -6 9 -6 0 -9 3 -7 8 3 4 -5 7
-18 7 -13 0 -20 -4 -17 -10 3 -6 0 -5 -9 1 -8 6 -25 11 -38 12 -13 0 -27 5
-30 10 -8 12 -51 22 -51 11 0 -4 -6 -6 -14 -3 -18 7 -186 10 -186 4 0 -10 -55
-5 -62 5 -5 7 -8 7 -8 0 0 -5 -17 -9 -37 -9 -24 1 -37 6 -35 14 1 6 -2 9 -8 5
-5 -3 -10 -13 -10 -21 0 -8 -5 -12 -10 -9 -6 4 -7 11 -4 17 4 6 -5 3 -19 -8
-15 -10 -27 -23 -27 -27 0 -5 -5 -5 -11 -1 -8 4 -3 12 12 20 15 8 18 13 9 14
-9 0 -25 -7 -36 -15 -12 -8 -25 -11 -29 -7 -5 4 -5 2 -2 -4 4 -7 -3 -14 -18
-18 -14 -4 -23 -11 -20 -15 3 -5 -13 -18 -35 -28 -22 -10 -40 -23 -40 -29 0
-7 -8 -11 -18 -10 -9 0 -16 -5 -15 -11 2 -7 -5 -13 -14 -13 -9 0 -13 -3 -10
-6 4 -4 -3 -15 -14 -25 -13 -11 -18 -23 -13 -31 6 -10 4 -10 -9 0 -14 12 -16
11 -12 -7 3 -15 0 -18 -12 -14 -10 4 -14 2 -10 -4 4 -6 -4 -19 -18 -29 -13
-10 -22 -21 -19 -26 3 -4 0 -8 -5 -8 -6 0 -10 -6 -8 -12 1 -7 -4 -12 -12 -10
-12 3 -12 1 0 -14 12 -15 12 -17 0 -9 -11 6 -13 4 -8 -8 3 -9 2 -19 -4 -22 -5
-4 -7 -11 -3 -16 3 -5 -1 -20 -8 -32 -9 -14 -14 -49 -14 -95 1 -58 -2 -71 -13
-67 -10 4 -11 2 -4 -7 19 -24 21 -67 4 -71 -12 -4 -11 -5 3 -6 20 -1 20 -1 0
-17 -10 -8 -14 -13 -8 -10 16 8 26 -36 11 -46 -9 -6 -8 -8 3 -9 10 0 8 -3 -5
-9 -11 -5 -14 -9 -7 -9 10 -1 10 -6 1 -22 -9 -18 -8 -24 4 -31 12 -6 14 -15 8
-31 -6 -15 -4 -25 6 -32 8 -6 15 -20 16 -33 0 -12 5 -22 10 -22 6 0 20 -12 33
-26 14 -14 29 -22 36 -18 7 4 8 3 4 -5 -10 -15 32 -53 48 -44 6 4 5 -1 -3 -10
-9 -12 -10 -17 -2 -17 7 0 22 -11 35 -25 13 -13 27 -21 32 -17 4 4 2 -2 -6
-12 -8 -11 -10 -17 -4 -13 6 3 17 -3 24 -14 8 -10 21 -19 30 -19 13 0 13 -1 0
-10 -11 -7 -12 -10 -2 -10 7 0 20 -7 29 -15 16 -17 33 -12 33 11 0 8 6 14 14
14 8 0 16 5 18 11 3 8 10 6 20 -5 9 -9 26 -16 38 -16 12 0 19 -4 16 -9 -3 -5
1 -12 10 -15 10 -4 13 -2 8 7 -4 6 1 5 12 -4 10 -9 25 -14 32 -12 7 3 12 -3
12 -14 0 -10 4 -14 8 -8 10 14 32 17 32 4 0 -5 4 -8 9 -4 5 3 12 1 15 -4 3 -4
19 -7 36 -5 17 2 29 0 25 -5 -6 -11 14 -9 34 3 10 6 12 5 7 -2 -4 -7 -3 -12 1
-12 8 0 14 -44 16 -112 0 -16 5 -28 11 -28 6 0 4 -5 -4 -10 -12 -8 -12 -10 -1
-10 11 0 11 -3 0 -17 -8 -10 -9 -14 -2 -10 6 4 14 3 18 -3 3 -5 -2 -10 -12
-10 -17 -1 -16 -2 2 -12 19 -11 19 -11 0 -19 -20 -7 -20 -8 0 -8 17 -1 17 -3
5 -11 -8 -5 -10 -10 -5 -10 6 0 10 -26 9 -58 0 -31 2 -61 5 -67 9 -16 8 -44
-1 -39 -4 3 -8 1 -8 -5 0 -5 5 -11 12 -13 7 -3 8 -9 3 -19 -12 -18 -14 -60 -3
-53 4 3 8 -1 8 -10 0 -8 3 -16 8 -19 4 -2 2 -2 -5 -1 -6 2 -14 -4 -17 -12 -3
-9 -1 -12 4 -9 13 8 13 -1 0 -26 -9 -16 -7 -21 12 -29 13 -5 17 -9 8 -10 -11
0 -8 -6 9 -20 16 -14 22 -27 19 -44 -3 -17 -1 -23 8 -19 9 3 12 -9 11 -51 -1
-40 2 -56 11 -56 7 0 10 -5 7 -10 -4 -6 -12 -8 -18 -4 -7 3 -5 0 3 -8 17 -15
19 -36 6 -57 -7 -10 -6 -12 4 -6 10 6 12 3 8 -13 -4 -12 -2 -24 3 -27 4 -3 5
-16 0 -28 -9 -25 -4 -50 9 -42 12 8 6 -21 -9 -38 -10 -13 -9 -15 11 -11 13 2
18 2 12 -1 -7 -3 -9 -15 -6 -27 4 -16 2 -19 -9 -14 -8 4 -5 0 5 -8 20 -16 20
-16 0 -16 -11 0 -15 -3 -8 -8 19 -13 25 -42 8 -42 -8 0 -12 -5 -9 -10 4 -6 9
-8 13 -6 4 2 7 -11 7 -30 0 -19 -3 -34 -7 -34 -4 0 -3 -13 2 -30 5 -16 5 -30
1 -30 -4 0 -4 -27 -1 -60 4 -38 2 -60 -5 -60 -5 0 -3 -5 5 -10 12 -8 12 -10
-5 -10 -12 0 -16 -3 -9 -8 14 -9 24 -72 12 -72 -5 0 -6 -4 -3 -10 3 -5 8 -19
10 -31 3 -16 0 -19 -12 -15 -12 5 -13 3 -6 -6 14 -18 23 -58 13 -58 -5 0 -5
-13 0 -30 6 -20 5 -30 -2 -30 -6 0 -7 -8 -3 -17 12 -31 13 -63 1 -63 -6 0 -4
-5 4 -10 9 -6 10 -10 3 -10 -8 0 -9 -9 -3 -29 5 -20 5 -31 -2 -33 -8 -3 -7
-11 1 -26 10 -19 9 -22 -6 -23 -15 0 -15 -2 -3 -7 10 -5 15 -20 14 -47 0 -22
4 -46 10 -54 8 -11 8 -13 -1 -7 -9 5 -13 0 -13 -13 0 -12 4 -21 9 -21 11 0 9
-19 -3 -39 -6 -10 -5 -12 2 -7 13 8 12 -20 -2 -42 -5 -8 -3 -11 6 -10 8 2 13
-9 13 -32 0 -19 4 -41 8 -47 5 -8 3 -13 -5 -13 -10 0 -9 -3 2 -10 8 -5 11 -12
7 -16 -4 -4 -2 -13 5 -21 9 -11 7 -12 -7 -7 -16 7 -16 5 0 -26 9 -18 18 -55
19 -82 2 -30 8 -53 17 -59 11 -7 11 -9 -3 -9 -10 0 -18 -4 -18 -10 0 -5 7 -7
16 -3 14 5 15 3 5 -15 -8 -15 -8 -23 0 -28 8 -4 7 -9 -2 -15 -10 -6 -11 -9 -1
-9 8 0 12 -19 12 -60 0 -33 4 -60 10 -60 6 0 10 -4 10 -10 0 -5 -3 -9 -8 -7
-4 1 -7 -2 -7 -8 0 -5 6 -9 13 -9 10 2 9 -3 -3 -16 -11 -12 -13 -20 -6 -25 6
-3 11 -24 11 -46 0 -24 5 -39 13 -39 9 0 9 -2 -1 -9 -17 -10 -17 -21 -3 -31
17 -10 22 -53 8 -62 -7 -4 -8 -8 -1 -8 6 0 10 -18 9 -42 -1 -24 3 -46 9 -50 8
-6 6 -11 -4 -18 -13 -8 -8 -14 10 -12 3 0 6 -8 6 -18 0 -11 -6 -16 -16 -13 -8
3 -5 -2 8 -12 18 -13 21 -20 11 -31 -9 -11 -9 -14 1 -14 9 0 9 -4 -1 -17 -9
-11 -10 -14 -2 -9 9 5 13 0 13 -16 0 -40 3 -58 11 -58 4 0 6 -18 5 -40 -1 -23
3 -45 11 -51 7 -6 11 -21 9 -33 -2 -11 1 -29 6 -38 5 -11 5 -18 0 -18 -12 0
-2 -53 11 -62 7 -4 6 -13 -4 -24 -8 -10 -9 -15 -3 -11 7 4 11 -7 12 -29 1 -19
4 -39 7 -44 4 -6 0 -10 -7 -10 -8 0 -9 -3 -3 -8 6 -4 10 -16 10 -27 0 -11 -4
-23 -10 -27 -6 -5 -5 -8 3 -8 7 0 10 -5 6 -11 -3 -6 0 -15 7 -20 10 -6 11 -9
2 -9 -7 0 -13 -7 -13 -16 0 -8 5 -12 11 -9 6 4 5 -2 -2 -13 -11 -17 -10 -24 2
-38 9 -11 9 -15 1 -10 -15 9 -16 -6 -1 -21 7 -7 8 -17 3 -25 -14 -22 -14 -41
-1 -29 9 7 12 -2 12 -35 -1 -24 3 -44 7 -44 4 0 8 -5 8 -11 0 -5 -6 -7 -12 -4
-7 4 -2 -3 11 -14 13 -12 19 -21 13 -21 -8 0 -9 -28 -2 -37 7 -9 4 -29 -5 -35
-6 -5 -2 -8 9 -8 15 0 16 -3 6 -15 -11 -13 -10 -14 5 -9 15 6 16 4 6 -14 -7
-12 -8 -22 -3 -22 5 0 8 -22 7 -50 -1 -27 2 -50 7 -50 5 0 6 6 2 13 -4 6 -3 9
1 4 5 -4 9 -17 10 -28 1 -14 -3 -18 -14 -14 -13 4 -12 2 2 -9 11 -9 15 -20 10
-31 -4 -13 -3 -16 6 -10 10 5 11 3 4 -11 -5 -11 -8 -29 -7 -41 0 -13 -4 -23
-10 -23 -7 0 -7 -3 1 -8 7 -5 11 -24 10 -45 -2 -20 1 -39 7 -41 6 -2 5 -5 -2
-5 -7 -1 -10 -6 -7 -11 7 -12 17 -57 19 -82 0 -10 5 -18 11 -18 5 0 3 -5 -5
-10 -10 -6 -11 -10 -3 -10 9 0 10 -7 3 -26 -6 -14 -6 -23 -1 -20 5 3 12 -2 15
-11 4 -9 1 -20 -6 -25 -10 -6 -10 -8 1 -8 7 0 11 -6 7 -15 -3 -8 0 -15 6 -15
9 0 9 -3 1 -11 -9 -9 -7 -18 5 -37 10 -15 11 -23 5 -19 -7 5 -13 4 -13 -1 0
-6 7 -12 15 -16 11 -4 13 -11 5 -31 -8 -20 -6 -25 6 -25 13 0 14 -3 5 -13 -8
-10 -7 -17 1 -25 9 -9 9 -12 -2 -12 -9 0 -8 -5 6 -15 12 -9 14 -14 6 -15 -7 0
-10 -5 -7 -10 4 -6 10 -8 15 -5 5 3 5 -8 0 -25 -5 -19 -5 -30 1 -30 6 0 8 -9
4 -19 -3 -11 -1 -22 5 -26 6 -3 8 -11 5 -16 -4 -5 0 -9 7 -10 7 0 4 -4 -7 -9
-17 -7 -17 -9 -2 -9 19 -1 24 -21 5 -21 -9 0 -9 -3 1 -9 8 -5 12 -18 8 -30 -3
-12 -1 -21 4 -21 4 0 6 -7 3 -15 -5 -11 -10 -12 -18 -5 -9 7 -11 2 -8 -20 3
-19 8 -27 16 -23 6 4 4 -2 -4 -12 -11 -14 -12 -17 -1 -10 11 6 13 1 9 -24 -3
-21 0 -31 9 -31 7 0 13 -5 13 -11 0 -5 -4 -8 -9 -5 -12 8 11 -57 24 -66 6 -5
5 -8 -3 -8 -7 0 -10 -5 -7 -10 4 -6 11 -7 17 -4 8 5 9 1 5 -10 -4 -9 -3 -14 2
-11 5 3 13 1 16 -5 5 -8 11 -7 21 1 11 9 14 8 14 -6 0 -11 5 -15 14 -12 16 6
66 -13 66 -25 0 -5 5 -8 11 -8 5 0 7 6 4 13 -4 6 3 1 14 -12 13 -14 21 -18 21
-10 0 9 5 7 11 -5 9 -15 13 -16 20 -5 7 11 9 11 9 1 0 -7 4 -11 9 -8 5 3 11
-1 15 -9 4 -12 11 -13 31 -5 17 7 24 7 20 0 -8 -13 38 -8 47 5 5 6 8 6 8 -2 0
-6 9 -10 20 -8 11 2 20 -2 20 -8 0 -8 3 -8 9 1 6 11 10 10 15 -3 4 -12 13 -15
31 -11 14 4 25 2 25 -4 0 -5 5 -10 11 -10 5 0 7 5 4 10 -4 6 4 5 19 -1 14 -7
23 -15 21 -19 -5 -8 44 -4 53 4 3 3 14 -2 25 -11 11 -10 17 -12 13 -5 -4 6 -2
12 3 12 6 0 11 -6 11 -14 0 -9 10 -13 30 -12 20 1 30 -2 30 -12 0 -9 7 -13 20
-9 14 4 20 0 21 -11 0 -11 2 -13 6 -4 4 10 8 10 21 0 13 -11 14 -11 8 1 -5 8
3 6 20 -5 21 -14 26 -15 19 -4 -6 11 -3 10 11 -2 16 -14 23 -15 34 -5 10 10
12 9 7 -4 -4 -13 -1 -16 15 -11 13 3 19 1 15 -5 -7 -12 22 -11 43 2 8 4 12 5
8 0 -15 -16 13 -35 33 -24 14 7 19 6 19 -2 0 -6 7 -9 15 -5 8 3 19 -2 24 -12
5 -9 12 -16 15 -14 16 6 26 1 20 -10 -5 -8 0 -7 11 2 11 9 16 10 11 3 -7 -12
6 -17 41 -16 7 1 10 -3 7 -8 -5 -8 9 -13 29 -10 4 0 7 -4 7 -9 0 -5 3 -10 8
-9 20 3 50 -14 45 -27 -3 -8 -9 -11 -14 -8 -5 3 -6 -2 -3 -10 3 -9 11 -13 18
-10 6 3 3 -1 -8 -10 -10 -8 -20 -25 -21 -38 -4 -38 -5 -39 -14 -33 -6 3 -8 -4
-6 -15 2 -11 -1 -20 -6 -20 -6 0 -8 -4 -4 -9 3 -5 0 -13 -6 -16 -5 -4 -8 -13
-5 -21 3 -8 1 -14 -4 -14 -5 0 -7 -6 -4 -14 3 -7 -2 -21 -11 -30 -9 -9 -13
-21 -9 -27 4 -7 3 -9 -4 -5 -6 3 -13 2 -16 -3 -4 -5 -2 -13 4 -16 8 -5 8 -11
0 -20 -7 -8 -9 -19 -5 -25 3 -5 0 -10 -8 -10 -18 0 -29 -52 -14 -63 7 -5 3 -7
-11 -4 -23 5 -23 5 -7 -13 12 -14 13 -20 4 -26 -8 -5 -10 -3 -4 6 5 8 4 11 -1
7 -5 -3 -10 -28 -9 -55 0 -28 -2 -50 -5 -50 -18 1 -21 -4 -9 -19 10 -11 10
-14 2 -9 -10 5 -13 -3 -13 -29 0 -25 -4 -34 -12 -29 -6 4 -8 3 -4 -4 3 -6 2
-13 -3 -16 -6 -4 -6 -18 -1 -36 5 -17 5 -28 0 -25 -9 5 -25 -42 -21 -64 1 -8
-2 -10 -10 -5 -8 5 -10 3 -4 -6 5 -8 1 -18 -11 -28 -18 -13 -18 -14 6 -8 25 7
25 7 3 -6 -17 -11 -20 -17 -11 -32 8 -15 8 -17 -2 -11 -10 6 -12 2 -8 -13 3
-11 -1 -30 -9 -42 -8 -11 -12 -27 -9 -35 3 -8 1 -17 -3 -20 -5 -3 -5 -21 -1
-40 6 -27 5 -33 -3 -26 -9 6 -12 2 -13 -15 -1 -15 2 -21 10 -17 8 5 8 3 0 -8
-5 -8 -10 -21 -9 -29 1 -8 -2 -23 -7 -32 -5 -10 -3 -18 5 -21 9 -4 8 -6 -2 -6
-11 -1 -11 -4 -1 -16 10 -12 9 -15 -6 -15 -16 0 -17 -2 -4 -10 12 -7 12 -12 2
-22 -6 -6 -12 -17 -12 -22 0 -6 5 -4 10 4 7 12 9 10 7 -8 -1 -12 -6 -21 -12
-18 -7 2 -12 -2 -12 -10 0 -8 4 -14 9 -14 5 0 4 -8 -1 -19 -6 -10 -9 -28 -6
-40 2 -12 -3 -25 -13 -32 -13 -8 -13 -9 -2 -6 11 3 16 -2 16 -18 0 -13 -4 -21
-10 -18 -5 4 -7 -1 -3 -10 4 -12 1 -17 -11 -17 -10 0 -13 -3 -6 -8 11 -7 12
-51 1 -68 -3 -6 -2 -16 3 -24 5 -8 5 -22 -1 -32 -7 -12 -6 -18 1 -18 6 0 8 -5
5 -10 -4 -6 -12 -8 -18 -4 -7 3 -4 -1 5 -8 15 -13 15 -15 0 -24 -13 -9 -13
-12 -2 -19 9 -6 11 -4 5 5 -5 9 -4 11 4 6 9 -6 9 -11 1 -21 -7 -8 -7 -15 -1
-19 6 -4 6 -18 1 -36 -6 -20 -5 -30 2 -30 7 0 6 -5 -1 -14 -7 -8 -8 -17 -3
-20 10 -6 9 -36 -2 -54 -4 -6 -3 -12 1 -12 11 0 10 -61 -2 -79 -6 -10 -4 -12
6 -6 12 7 12 6 1 -7 -10 -13 -10 -17 0 -21 10 -4 10 -6 -1 -6 -11 -1 -11 -4
-1 -16 10 -12 10 -15 -1 -15 -11 0 -11 -2 1 -10 12 -8 12 -10 1 -10 -11 0 -11
-3 -1 -15 10 -12 10 -18 0 -30 -7 -8 -8 -15 -4 -15 5 0 10 -13 10 -30 1 -16
-3 -30 -10 -30 -6 0 -4 -5 4 -10 13 -9 13 -11 0 -20 -9 -6 -10 -10 -3 -10 6 0
10 -8 9 -17 -2 -10 1 -29 7 -43 5 -14 11 -50 13 -79 2 -30 10 -58 17 -63 9 -6
8 -8 -3 -8 -13 0 -13 -2 -1 -9 8 -5 11 -16 8 -24 -3 -9 -1 -18 6 -21 9 -3 8
-7 -2 -14 -8 -6 -9 -12 -3 -16 6 -3 8 -15 5 -26 -3 -12 0 -20 7 -20 9 0 10 -3
1 -14 -8 -10 -8 -16 2 -24 8 -7 12 -29 11 -56 -1 -32 2 -44 10 -39 6 4 5 -1
-3 -10 -12 -15 -11 -17 3 -17 10 0 14 -5 11 -10 -4 -6 -10 -8 -14 -6 -3 3 -7
-4 -7 -14 0 -14 3 -16 13 -8 8 6 16 8 20 4 3 -3 1 -6 -6 -6 -8 0 -11 -7 -7
-15 3 -8 0 -15 -7 -15 -8 0 -8 -3 2 -9 8 -5 11 -16 8 -25 -4 -9 -2 -16 4 -16
6 0 7 -5 3 -12 -11 -17 -11 -58 -1 -58 4 0 3 -10 -4 -21 -8 -15 -8 -19 0 -15
7 5 11 -2 11 -18 0 -14 4 -26 8 -26 10 0 9 -30 -1 -47 -5 -8 -1 -11 13 -8 21
4 27 -9 9 -20 -6 -5 -2 -13 11 -22 18 -12 19 -17 8 -31 -7 -9 -8 -13 -3 -10 6
4 15 -5 22 -18 8 -17 8 -26 1 -31 -7 -4 -8 -1 -3 7 5 9 4 11 -4 6 -6 -4 -9
-12 -5 -17 3 -5 10 -6 16 -3 8 5 9 1 5 -10 -4 -9 -3 -14 2 -11 5 3 12 1 16 -5
3 -5 2 -10 -4 -10 -6 0 -8 -7 -5 -15 4 -8 9 -13 13 -10 4 2 8 -2 8 -9 0 -8 -7
-12 -16 -9 -9 2 -6 -2 5 -9 12 -7 20 -21 18 -31 -1 -9 3 -23 10 -30 7 -7 12
-20 10 -30 -1 -10 4 -21 12 -24 8 -3 14 -9 14 -15 0 -5 -6 -6 -12 -2 -7 4 -2
-5 12 -20 22 -24 22 -26 5 -21 -19 6 -19 6 -1 -9 10 -8 16 -22 13 -31 -4 -8
-2 -15 4 -15 6 0 8 -4 5 -8 -3 -5 4 -15 15 -22 21 -16 27 -36 6 -24 -7 4 -9 3
-4 -2 5 -5 14 -9 20 -9 7 -1 11 -7 9 -14 -1 -7 10 -24 25 -38 15 -14 22 -22
15 -19 -10 6 -10 2 0 -18 6 -14 18 -26 25 -26 8 0 11 -4 8 -10 -3 -5 0 -20 7
-32 7 -13 11 -26 10 -30 -1 -5 5 -8 14 -8 10 0 14 -6 11 -15 -4 -8 -2 -17 3
-20 6 -4 10 -15 10 -26 0 -10 4 -19 10 -19 5 0 9 -6 7 -12 -1 -7 4 -12 11 -10
10 2 11 -4 7 -19 -6 -18 -4 -21 9 -16 10 4 15 3 12 -1 -7 -11 50 -73 59 -64 5
4 5 2 2 -5 -4 -6 0 -18 8 -26 8 -9 15 -21 15 -28 0 -7 3 -9 7 -6 9 9 43 -22
43 -40 0 -7 6 -13 14 -13 7 0 16 -9 19 -21 3 -12 10 -18 16 -14 7 4 8 -1 4
-12 -6 -16 -5 -16 10 -4 15 12 17 12 11 -2 -3 -10 2 -21 15 -29 12 -7 21 -18
21 -25 0 -7 5 -13 11 -13 5 0 7 -4 4 -10 -3 -5 0 -10 8 -10 17 0 30 -27 20
-42 -3 -7 -1 -8 5 -4 7 4 12 2 12 -4 0 -6 4 -9 9 -5 5 3 13 0 17 -6 4 -8 3 -9
-4 -5 -7 4 -12 2 -12 -3 0 -6 5 -11 11 -11 5 0 7 -5 3 -12 -4 -6 -3 -9 2 -5
12 7 60 -18 57 -30 -2 -4 2 -9 7 -9 6 -1 14 -2 19 -3 5 0 11 -10 14 -22 3 -12
10 -18 16 -14 6 3 11 -2 11 -12 0 -14 2 -15 9 -4 7 11 10 9 16 -8 4 -14 12
-20 21 -17 8 3 13 2 10 -3 -3 -5 1 -14 9 -21 8 -7 15 -9 15 -4 0 5 5 1 11 -9
6 -9 14 -15 20 -12 5 4 6 -2 2 -11 -4 -11 -2 -15 4 -11 12 7 65 -38 56 -47 -4
-3 1 -6 11 -6 21 0 46 -23 46 -42 0 -10 3 -9 10 2 8 13 10 12 10 -4 0 -15 3
-16 14 -7 12 10 13 8 9 -8 -3 -12 -1 -21 6 -21 7 0 24 -11 38 -24 15 -14 31
-22 36 -19 6 3 7 1 3 -5 -4 -7 -2 -12 4 -12 6 0 8 -4 5 -10 -3 -6 1 -7 9 -4
10 4 18 -1 22 -10 5 -14 9 -14 22 -4 12 10 14 10 8 0 -5 -8 2 -15 18 -22 14
-5 26 -17 26 -25 0 -13 4 -14 23 -4 12 6 19 8 15 4 -11 -12 15 -32 36 -27 13
3 17 1 12 -6 -4 -7 -1 -12 8 -12 9 0 16 -4 16 -10 0 -5 6 -9 13 -7 6 1 11 -4
9 -11 -2 -10 2 -10 18 -2 16 9 19 8 13 -6 -3 -10 -2 -15 3 -12 12 8 35 -17 26
-28 -4 -5 2 -2 12 6 13 10 17 10 12 3 -4 -8 -1 -13 9 -13 9 0 13 -4 10 -10 -3
-6 1 -7 9 -4 9 3 16 1 16 -6 0 -6 3 -9 8 -7 10 7 32 -19 24 -29 -4 -4 -2 -4 5
-1 14 9 45 -2 38 -13 -3 -5 6 -7 20 -6 13 2 23 0 20 -3 -2 -4 0 -13 6 -21 5
-8 9 -10 9 -4 0 6 7 11 15 11 11 0 12 -4 4 -13 -8 -9 -4 -12 15 -10 14 2 23
-1 20 -5 -3 -5 0 -9 6 -9 6 0 8 -5 4 -11 -5 -8 1 -10 18 -7 16 3 25 0 25 -8 0
-7 -3 -12 -6 -11 -3 1 -7 -2 -8 -7 0 -5 -8 -13 -17 -18 -9 -5 -15 -12 -12 -16
2 -4 -12 -8 -32 -10 -19 -1 -42 -8 -50 -15 -8 -6 -23 -11 -34 -9 -10 2 -18 -1
-18 -7 0 -5 -15 -11 -32 -13 -25 -2 -33 -8 -32 -21 2 -14 -1 -15 -11 -7 -10 8
-20 8 -36 0 -17 -10 -20 -9 -14 2 6 10 5 10 -5 1 -7 -6 -19 -9 -28 -6 -10 4
-13 2 -8 -5 3 -6 1 -14 -5 -18 -7 -4 -10 -3 -7 2 3 5 0 15 -8 22 -12 11 -14
10 -14 -3 0 -9 -4 -14 -9 -10 -5 3 -13 1 -16 -5 -5 -8 -11 -8 -20 0 -10 8 -15
8 -20 0 -5 -8 -11 -8 -21 1 -8 6 -14 7 -14 2 0 -5 -12 -9 -28 -9 -17 1 -26 -4
-24 -12 1 -8 -2 -11 -8 -7 -6 3 -8 11 -5 16 11 16 -7 9 -21 -8 -8 -11 -13 -13
-14 -5 0 15 -30 16 -30 0 0 -6 -7 -3 -16 8 -8 10 -13 14 -10 8 3 -6 -6 -16
-19 -22 -15 -7 -25 -8 -25 -2 0 6 -5 10 -11 10 -5 0 -7 -6 -3 -12 6 -9 3 -9
-9 0 -9 8 -21 11 -27 7 -5 -3 -10 2 -10 11 0 10 -3 15 -6 11 -3 -3 -22 10 -41
28 -26 25 -34 39 -30 55 4 16 0 23 -16 29 -12 5 -29 6 -37 4 -10 -3 -9 0 3 7
9 6 15 16 11 21 -4 6 -11 5 -20 -2 -12 -10 -15 -10 -12 2 2 9 -4 13 -16 11
-18 -3 -18 -2 -5 14 8 11 9 15 2 10 -8 -4 -13 -2 -13 5 0 8 -4 8 -15 -1 -9 -7
-18 -10 -22 -6 -3 3 0 6 7 6 7 0 3 9 -10 20 -13 12 -30 18 -37 16 -7 -3 -15 0
-19 6 -5 7 -2 8 6 3 8 -5 11 -4 6 3 -4 6 -14 8 -23 5 -11 -5 -14 -3 -8 6 6 10
3 11 -15 1 -18 -10 -21 -9 -15 1 6 9 2 11 -13 7 -12 -4 -22 -2 -22 4 0 5 -13
7 -30 4 -16 -2 -30 -1 -30 3 0 8 -78 7 -86 -2 -3 -3 -13 -3 -22 1 -15 5 -16 4
-2 -13 14 -17 14 -18 -7 -7 -14 8 -24 9 -28 2 -4 -6 -11 -8 -16 -5 -5 4 -9 0
-10 -7 0 -7 -4 -4 -9 7 -5 11 -9 14 -9 7 -1 -7 -5 -10 -11 -7 -5 3 -10 -2 -10
-12 0 -14 -2 -15 -9 -4 -6 9 -11 10 -15 2 -4 -6 -20 -9 -36 -7 -17 2 -30 -1
-30 -6 0 -5 -4 -6 -10 -3 -5 3 -10 1 -10 -4 0 -6 -10 -11 -22 -12 -13 0 -18
-3 -11 -6 10 -3 10 -7 0 -18 -7 -7 -15 -11 -19 -8 -4 2 -5 -4 -1 -14 3 -10 2
-15 -2 -11 -8 8 -42 -31 -38 -44 1 -3 -5 -12 -15 -20 -15 -12 -16 -11 -4 4 10
12 10 18 1 24 -7 4 -9 3 -5 -4 3 -6 2 -14 -4 -17 -6 -4 -8 -16 -4 -27 4 -14 2
-18 -5 -14 -6 4 -11 0 -11 -8 0 -9 -4 -16 -9 -16 -6 0 -8 -9 -6 -20 2 -11 -1
-19 -8 -17 -7 1 -11 -6 -10 -16 0 -12 -4 -16 -12 -13 -9 3 -12 0 -8 -10 3 -7
1 -14 -5 -14 -5 0 -9 -8 -8 -17 0 -10 -4 -17 -11 -16 -6 1 -10 -5 -9 -15 2 -9
-4 -22 -13 -29 -15 -11 -15 -12 0 -13 16 0 23 -30 6 -30 -6 0 -6 -5 0 -12 5
-7 9 -41 9 -75 -1 -35 1 -63 4 -63 3 0 5 -11 5 -24 0 -13 -3 -22 -7 -20 -4 3
-6 -4 -5 -15 1 -16 4 -18 16 -8 12 10 13 9 2 -10 -6 -13 -9 -34 -5 -49 6 -21
4 -25 -7 -19 -8 5 -10 4 -6 0 10 -12 38 -15 31 -4 -3 5 0 9 6 9 7 0 9 -8 5
-20 -7 -22 10 -28 19 -7 3 6 3 1 -1 -13 -5 -21 -4 -23 9 -13 12 10 15 10 15
-2 0 -8 -4 -12 -9 -9 -4 3 -8 0 -8 -5 0 -6 4 -11 10 -11 5 0 9 -3 8 -7 -1 -5
1 -18 6 -30 7 -21 18 -27 52 -26 6 0 11 -6 11 -13 0 -7 -4 -11 -8 -8 -4 2 -10
0 -13 -5 -7 -11 13 -9 33 3 10 7 12 3 6 -14 -6 -17 -4 -21 6 -14 21 13 39 14
39 2 0 -6 -7 -8 -15 -4 -8 3 -15 2 -15 -3 0 -13 31 -36 49 -36 9 0 22 -4 29
-8 6 -5 17 -5 24 -1 7 4 8 3 4 -4 -5 -8 2 -12 19 -12 14 0 24 -4 21 -9 -3 -5
3 -11 14 -14 11 -3 20 0 20 5 0 7 5 6 13 -1 8 -6 17 -8 20 -4 4 3 7 0 7 -8 0
-11 2 -11 10 1 8 13 10 13 10 -1 0 -10 8 -15 22 -14 13 1 29 -3 37 -9 11 -8
13 -8 8 1 -5 8 5 11 35 9 24 -1 59 2 78 7 19 5 50 9 68 9 17 0 32 5 32 10 0 5
3 7 8 5 4 -3 16 5 27 16 11 11 14 16 6 12 -9 -5 -12 -4 -7 3 3 6 16 9 27 7 17
-3 19 -2 9 10 -10 12 -8 13 9 10 11 -2 24 1 27 7 4 7 2 8 -4 4 -7 -4 -12 -2
-12 3 0 6 5 11 11 11 5 0 7 6 3 13 -5 8 -2 8 9 -2 15 -12 17 -11 17 3 0 10 4
15 9 12 5 -3 11 1 15 9 3 8 12 15 21 15 8 0 15 5 15 11 0 5 -5 7 -12 3 -7 -5
-8 -3 -4 5 5 7 15 10 23 7 11 -4 13 -2 9 9 -7 20 44 16 62 -5 11 -13 12 -13 6
0 -7 13 -5 13 9 2 9 -8 22 -10 28 -6 9 5 10 2 6 -10 -6 -14 -3 -15 13 -6 15 8
20 8 20 -1 0 -6 7 -9 15 -5 8 3 21 -1 29 -9 13 -13 15 -13 19 3 4 16 5 16 6 0
0 -10 8 -18 17 -18 8 0 13 4 9 9 -3 5 8 3 25 -5 16 -9 34 -13 39 -10 5 3 11
-4 15 -16 4 -18 8 -20 18 -10 16 16 31 16 22 0 -5 -9 -2 -8 9 1 15 12 20 11
38 -5 12 -11 23 -18 25 -16 14 8 24 -1 24 -23 0 -16 -6 -25 -16 -25 -8 0 -13
-4 -9 -9 3 -5 0 -13 -6 -17 -8 -4 -9 -3 -5 4 10 17 -3 15 -21 -3 -8 -9 -12
-22 -9 -31 3 -8 2 -12 -4 -9 -18 11 -32 -5 -19 -21 9 -11 8 -14 -5 -14 -10 0
-14 -5 -11 -10 3 -6 1 -10 -5 -10 -7 0 -9 -12 -6 -30 2 -16 1 -30 -4 -30 -4 0
-11 -7 -14 -16 -4 -10 -2 -13 7 -9 6 4 5 0 -5 -7 -12 -11 -14 -18 -6 -32 7
-13 7 -17 0 -12 -15 9 -21 -16 -10 -38 7 -12 7 -16 0 -12 -6 4 -11 -3 -11 -16
-1 -52 -3 -58 -13 -52 -6 4 -6 -2 1 -15 10 -17 9 -22 -4 -27 -8 -3 -13 -10
-10 -14 3 -5 1 -11 -5 -15 -7 -4 -7 -13 1 -26 6 -11 8 -27 5 -35 -3 -8 -2 -12
3 -9 5 3 12 1 16 -5 3 -5 1 -10 -4 -10 -6 0 -11 -5 -11 -11 0 -5 4 -8 8 -5 5
3 9 -2 9 -10 0 -8 -6 -13 -13 -10 -8 3 -11 0 -7 -9 3 -8 10 -12 17 -8 6 4 5
-1 -3 -11 -13 -15 -13 -19 0 -27 10 -6 10 -9 2 -9 -7 0 -13 -5 -13 -11 0 -5 6
-7 13 -3 8 5 8 2 -2 -9 -9 -12 -10 -17 -2 -17 7 0 9 -5 6 -10 -4 -6 -11 -8
-16 -5 -5 3 -6 -1 -3 -9 3 -9 9 -14 13 -12 4 3 8 -5 8 -17 2 -17 0 -19 -7 -7
-6 9 -10 10 -10 3 0 -6 5 -15 11 -18 6 -4 8 -13 5 -20 -2 -7 1 -18 7 -24 14
-14 18 -43 5 -35 -6 4 -3 -5 6 -18 9 -14 13 -29 9 -33 -5 -5 0 -3 10 4 15 12
17 12 11 -3 -3 -9 -11 -16 -18 -16 -6 0 -5 -4 3 -9 8 -5 11 -16 8 -26 -4 -9
-3 -14 3 -10 6 3 14 -4 19 -17 5 -13 25 -40 44 -60 19 -21 32 -38 28 -38 -3 0
2 -5 12 -11 9 -5 17 -16 17 -23 0 -8 9 -16 20 -19 12 -3 20 -14 20 -27 0 -18
4 -21 21 -17 16 4 19 2 15 -10 -5 -13 -4 -14 9 -3 12 10 15 10 15 -4 0 -9 5
-16 11 -16 5 0 7 6 3 13 -4 6 1 4 12 -5 15 -13 23 -14 39 -6 19 11 19 10 5 -7
-14 -17 -13 -18 7 -13 12 3 30 0 41 -8 11 -7 22 -10 26 -7 10 11 37 12 30 2
-3 -5 -11 -6 -17 -3 -7 4 -8 3 -4 -2 12 -12 30 -12 39 1 5 6 8 5 8 -3 0 -7 4
-11 9 -7 5 3 13 1 16 -5 5 -8 11 -8 20 0 8 7 19 9 25 5 6 -4 18 1 26 11 14 17
15 17 10 2 -8 -26 9 -22 23 5 6 12 9 14 7 5 -4 -15 -1 -16 20 -7 14 5 30 6 36
3 7 -5 8 -2 3 6 -6 10 -4 12 9 7 11 -5 15 -3 10 5 -5 8 -2 9 9 5 12 -4 17 -1
18 11 0 9 3 12 5 5 4 -8 11 -7 23 5 10 9 15 22 12 27 -2 6 3 4 12 -4 15 -12
17 -12 10 4 -5 15 -3 17 11 12 10 -4 15 -3 11 3 -3 5 4 14 15 20 11 6 18 15
15 21 -4 5 0 9 7 9 15 0 54 59 50 74 -2 5 4 3 13 -4 9 -7 15 -9 14 -4 -3 20
14 53 25 47 6 -4 5 1 -2 10 -12 14 -11 16 6 12 12 -2 31 -9 43 -15 12 -7 19
-8 15 -2 -3 5 0 15 8 21 11 9 15 9 19 -1 4 -8 6 -7 6 4 1 12 6 15 18 11 12 -5
14 -3 8 7 -6 10 -4 11 6 4 21 -13 42 -14 55 -3 8 7 13 6 16 -3 4 -10 8 -10 21
1 9 7 14 18 10 24 -3 6 -1 7 6 3 6 -4 9 -12 6 -17 -4 -5 -1 -9 4 -9 6 0 11 5
11 11 0 5 4 7 10 4 5 -3 19 -1 31 6 17 9 20 8 13 -3 -5 -8 3 -6 20 6 16 10 25
13 22 7 -4 -6 0 -11 9 -11 10 0 15 6 12 13 -4 10 12 13 68 13 51 -1 71 2 68
10 -2 7 1 15 8 20 8 5 10 3 4 -6 -6 -10 -4 -12 9 -7 10 4 15 3 11 -3 -3 -6 -1
-11 4 -11 6 -1 17 -2 24 -3 6 -1 15 3 19 9 5 6 8 5 8 -3 0 -9 7 -11 21 -7 16
5 19 4 14 -5 -5 -9 -4 -11 4 -6 20 13 61 14 61 2 0 -6 5 -4 10 4 6 10 10 11
10 3 0 -7 7 -13 16 -13 9 0 12 5 8 12 -4 7 -3 8 5 4 9 -6 9 -11 0 -22 -7 -9
-8 -14 -3 -13 21 4 24 -2 9 -17 -13 -14 -14 -19 -3 -25 10 -7 10 -9 1 -9 -8 0
-13 -14 -13 -35 0 -21 -5 -35 -12 -35 -9 0 -8 -3 2 -10 12 -8 12 -10 -3 -16
-9 -3 -17 -10 -17 -16 0 -5 6 -6 13 -2 9 6 9 4 1 -7 -6 -8 -10 -24 -9 -36 1
-16 -3 -20 -17 -18 -9 2 -20 -1 -24 -6 -4 -6 -11 -6 -19 1 -8 7 -20 8 -27 4
-8 -5 -8 -1 2 11 14 17 13 18 -4 12 -12 -5 -23 -3 -28 5 -6 10 -8 10 -8 -1 0
-10 -6 -10 -26 4 -15 9 -23 12 -20 6 4 -6 3 -11 -3 -11 -5 0 -12 6 -14 13 -4
9 -6 9 -6 -1 -1 -8 -6 -10 -14 -5 -22 13 -37 12 -37 -5 0 -13 -2 -13 -13 3
-10 12 -16 14 -21 7 -4 -7 -12 -12 -17 -12 -6 0 -7 6 -3 13 5 8 2 8 -9 -2 -9
-7 -17 -9 -17 -4 0 5 -11 9 -24 9 -14 0 -22 -4 -20 -8 5 -8 -10 -12 -35 -8
-13 2 -13 0 0 -16 7 -10 9 -15 2 -11 -6 4 -14 3 -18 -3 -4 -6 -11 -8 -16 -5
-5 4 -12 -1 -15 -9 -3 -9 -10 -13 -15 -10 -5 3 -9 0 -9 -6 0 -6 -11 -15 -25
-20 -14 -5 -25 -14 -25 -19 0 -6 -8 -7 -17 -4 -12 5 -15 2 -11 -9 5 -11 0 -14
-19 -12 -14 1 -22 0 -19 -3 7 -8 -18 -32 -27 -26 -5 3 -8 -1 -6 -8 1 -8 1 -21
0 -29 -1 -13 -2 -13 -11 0 -9 13 -10 13 -11 0 -1 -8 -1 -18 0 -23 0 -4 -4 -7
-9 -7 -6 0 -10 -7 -10 -15 0 -8 -5 -15 -11 -15 -5 0 -7 -5 -4 -11 4 -5 0 -18
-8 -27 -8 -9 -13 -25 -12 -35 3 -15 1 -16 -13 -5 -13 10 -14 10 -8 0 4 -7 2
-20 -6 -29 -11 -14 -11 -16 2 -8 11 6 10 3 -3 -12 -9 -11 -14 -22 -11 -25 3
-4 0 -16 -6 -28 -7 -12 -8 -20 -2 -16 5 3 13 -1 16 -10 9 -23 8 -26 -6 -18 -7
4 -4 -3 7 -16 11 -13 14 -20 8 -16 -15 8 -18 -10 -3 -19 5 -3 7 -12 3 -20 -3
-8 -1 -15 5 -15 5 0 7 -11 4 -25 -2 -14 0 -25 5 -25 5 0 9 -10 10 -22 1 -52 3
-59 15 -52 8 5 7 0 -2 -11 -12 -15 -12 -17 -1 -10 11 6 13 4 8 -9 -4 -10 -3
-15 3 -11 6 3 10 1 10 -5 0 -6 4 -9 9 -6 12 8 42 -4 36 -14 -3 -4 2 -11 11
-14 13 -5 14 -9 4 -21 -10 -12 -9 -15 6 -15 16 0 17 -2 4 -10 -13 -8 -12 -10
3 -10 9 0 17 -7 17 -15 0 -22 22 -65 31 -59 4 2 13 -5 19 -16 6 -11 15 -18 21
-15 5 4 9 1 9 -4 0 -6 9 -11 21 -11 11 0 17 -5 14 -10 -3 -6 1 -10 9 -10 9 0
16 -8 16 -17 0 -15 2 -16 10 -3 8 13 10 12 10 -2 0 -10 3 -17 7 -17 5 1 15 1
23 0 12 -1 12 -3 2 -10 -8 -5 30 -9 93 -9 60 0 111 -4 114 -9 3 -4 14 -9 23
-11 13 -2 16 2 11 14 -5 13 -3 15 7 9 10 -6 12 -4 6 11 -4 10 -4 15 0 11 4 -4
14 -1 22 6 11 8 13 8 9 0 -5 -7 -1 -9 11 -6 14 3 18 11 14 30 -4 20 -2 24 9
18 11 -7 11 -5 -1 11 -8 10 -11 16 -6 12 5 -4 15 0 23 8 18 17 76 15 69 -3 -3
-7 -1 -15 3 -18 5 -2 11 -14 14 -26 4 -16 2 -19 -11 -15 -16 6 -16 5 0 -7 15
-12 15 -14 0 -25 -9 -7 -12 -10 -5 -7 16 7 27 -13 15 -28 -14 -17 -8 -87 9
-99 11 -8 10 -9 -3 -4 -10 3 -18 1 -18 -4 0 -6 6 -10 13 -10 8 0 7 -4 -3 -10
-10 -6 -11 -10 -2 -10 6 0 12 -5 12 -11 0 -5 -4 -8 -8 -5 -5 3 -9 -1 -9 -9 0
-8 4 -12 9 -9 4 3 8 0 8 -5 0 -6 -5 -11 -11 -11 -6 0 -3 -8 6 -17 16 -15 16
-18 1 -29 -12 -9 -13 -13 -4 -17 9 -3 13 -27 13 -75 0 -46 3 -67 10 -62 6 5
10 -8 10 -38 1 -36 4 -46 15 -44 10 1 8 -3 -4 -13 -16 -12 -17 -15 -4 -15 17
0 31 -37 17 -46 -5 -3 -5 -13 1 -24 5 -10 7 -26 4 -34 -4 -10 -1 -16 9 -16 10
0 14 -8 12 -25 -1 -14 2 -28 8 -32 6 -3 7 -1 3 5 -4 7 -2 12 3 12 6 0 11 -15
11 -32 0 -25 3 -29 10 -18 8 12 10 10 11 -10 1 -14 1 -28 0 -32 0 -5 6 -8 14
-8 8 0 14 -3 14 -7 -4 -23 3 -33 22 -33 11 0 17 -4 14 -10 -3 -5 -1 -10 5 -10
6 0 8 -5 4 -13 -6 -8 -3 -8 9 1 14 12 16 11 12 -7 -3 -19 5 -26 28 -22 5 1 5
-8 2 -20 -6 -17 -4 -21 7 -16 10 3 14 -1 13 -16 -1 -12 2 -25 7 -28 5 -3 10
-22 11 -42 1 -20 5 -37 8 -37 3 0 5 -10 4 -23 -1 -12 3 -28 9 -36 8 -11 8 -13
0 -8 -8 4 -11 -3 -10 -22 0 -21 5 -27 16 -24 12 4 11 2 -2 -9 -11 -10 -14 -19
-7 -29 11 -17 12 -32 2 -26 -5 3 -7 -25 -6 -61 1 -36 -3 -72 -9 -79 -6 -8 -8
-16 -4 -20 3 -3 -3 -13 -14 -20 -11 -8 -18 -19 -14 -24 3 -6 -4 -13 -15 -16
-15 -4 -19 -9 -12 -17 8 -9 2 -12 -19 -10 -17 1 -28 -2 -25 -7 3 -4 13 -5 22
-2 15 6 16 5 3 -9 -8 -9 -23 -14 -33 -12 -10 1 -15 -1 -11 -7 3 -6 -2 -17 -12
-25 -11 -9 -14 -13 -9 -10 6 2 11 -4 11 -14 0 -11 -6 -22 -13 -24 -7 -3 -10 1
-7 8 3 8 0 17 -6 21 -6 3 -10 3 -9 -2 3 -19 -2 -34 -10 -29 -4 3 -7 -9 -5 -27
3 -22 1 -28 -5 -17 -6 8 -7 18 -4 24 4 5 1 6 -6 1 -7 -4 -11 -15 -8 -25 3 -13
0 -17 -9 -13 -17 6 -18 -9 -1 -26 10 -11 8 -11 -13 -1 -24 13 -24 12 -10 -5 9
-11 10 -16 3 -11 -12 6 -18 -10 -15 -36 1 -3 -5 -9 -14 -12 -12 -5 -13 -2 -3
17 9 17 9 19 0 11 -12 -11 -18 -32 -20 -62 -1 -7 -5 -11 -10 -8 -5 3 -12 -1
-15 -10 -3 -8 -2 -13 2 -10 4 2 7 -7 7 -20 0 -23 -1 -23 -14 -7 -12 17 -13 16
-6 -4 4 -15 2 -23 -6 -23 -7 0 -4 -6 7 -14 10 -8 16 -18 11 -22 -4 -4 -7 -2
-7 4 0 7 -4 12 -10 12 -6 0 -6 -9 0 -26 7 -17 7 -23 0 -19 -7 4 -9 -3 -6 -19
3 -16 0 -26 -7 -26 -7 0 -6 -4 3 -10 13 -9 13 -10 0 -10 -9 0 -11 -3 -5 -8 14
-10 18 -35 4 -27 -7 5 -10 -1 -9 -16 3 -39 1 -51 -10 -44 -16 10 -11 -1 7 -16
14 -12 16 -12 8 0 -5 10 -4 12 3 7 18 -11 14 -26 -5 -26 -17 -1 -17 -1 0 -11
11 -7 16 -18 13 -34 -3 -14 0 -28 6 -31 6 -4 8 -2 5 3 -4 6 -1 13 6 16 9 3 12
-5 9 -29 -3 -22 0 -34 7 -34 7 0 9 -5 5 -12 -4 -7 -3 -8 4 -4 6 4 9 13 6 20
-3 8 -1 16 3 19 11 7 10 -31 -1 -55 -4 -9 -2 -25 4 -35 10 -16 11 -16 6 -1 -3
10 -2 17 2 17 18 -3 26 2 15 9 -8 5 -9 13 -3 22 8 13 10 12 10 -2 0 -10 5 -18
11 -18 6 0 9 -6 6 -12 -2 -7 -10 -12 -16 -11 -6 2 -12 -3 -12 -10 -1 -6 -3
-22 -4 -34 -1 -12 2 -20 6 -17 5 3 9 1 9 -5 0 -5 13 -24 30 -42 16 -18 27 -36
24 -41 -3 -4 1 -5 9 -2 8 3 18 0 23 -7 4 -7 3 -10 -4 -5 -6 3 -13 2 -16 -3 -4
-5 5 -8 18 -7 18 2 23 -1 18 -12 -3 -10 -1 -13 6 -8 7 4 10 2 7 -7 -3 -7 5
-19 19 -27 14 -7 23 -17 20 -22 -3 -4 2 -8 11 -8 10 0 13 -5 9 -12 -5 -8 -2
-9 10 -5 13 5 17 3 13 -7 -4 -9 0 -13 11 -11 22 3 54 -24 45 -39 -4 -6 1 -5
10 3 12 9 17 10 17 2 0 -7 5 -9 10 -6 6 4 9 1 8 -7 -2 -7 5 -12 14 -12 10 1
16 -3 15 -8 -1 -6 8 -12 21 -14 16 -3 21 0 16 8 -4 7 -3 8 4 4 6 -4 8 -14 5
-24 -5 -14 -3 -15 7 -5 8 7 19 9 29 4 9 -5 24 -7 34 -6 9 2 15 -1 11 -6 -3 -5
0 -9 6 -9 6 0 8 -5 5 -11 -5 -6 -11 -4 -19 7 -10 13 -15 14 -21 4 -5 -8 -4
-11 2 -7 6 4 14 -1 17 -10 5 -12 9 -14 18 -5 17 17 55 15 62 -3 3 -9 12 -12
22 -8 12 4 15 3 10 -5 -4 -7 -3 -12 3 -12 5 0 12 6 14 13 4 9 6 9 6 0 1 -7 6
-13 12 -13 5 0 7 5 4 10 -3 6 -1 10 4 10 15 0 14 -13 -1 -29 -11 -11 -9 -11 9
-2 19 10 26 8 42 -8 11 -11 23 -16 26 -11 8 13 25 13 25 -1 0 -5 -4 -7 -10 -4
-5 3 -7 0 -4 -9 5 -12 9 -13 19 -3 7 7 11 15 9 18 -2 3 4 6 12 6 10 0 11 -4 4
-11 -17 -17 -11 -29 7 -15 15 12 16 12 10 -3 -3 -10 -1 -20 5 -24 7 -4 8 -3 4
4 -4 7 -2 12 4 12 6 0 9 4 6 8 -2 4 0 14 5 22 8 13 9 12 7 -2 -2 -9 -1 -16 2
-16 3 1 15 -4 28 -11 17 -9 22 -9 22 0 0 7 3 9 6 6 4 -3 15 -2 25 4 14 7 19 6
19 -3 0 -9 3 -9 10 2 8 13 10 12 10 -3 0 -10 4 -16 9 -12 5 3 12 2 15 -3 6
-10 62 -9 72 1 4 4 12 3 19 -3 6 -5 24 -8 40 -6 17 1 35 -1 42 -6 6 -5 14 -5
17 1 4 6 13 8 21 5 8 -4 13 -9 11 -13 -3 -4 4 -8 15 -8 10 -1 19 2 19 8 0 5 5
9 11 9 5 0 8 -4 5 -9 -4 -5 11 -9 31 -9 93 0 124 -3 118 -11 -3 -5 0 -13 6
-17 7 -4 9 -3 5 4 -3 6 -2 13 4 17 5 3 10 1 10 -5 0 -7 6 -10 14 -7 8 3 17 1
20 -6 3 -8 5 -8 5 2 1 11 4 11 16 1 8 -7 15 -8 15 -3 0 11 42 9 59 -2 6 -3 11
-1 11 5 0 7 6 8 16 2 19 -10 66 -4 59 8 -3 5 0 12 6 16 8 4 9 3 5 -4 -4 -7 -2
-12 4 -12 6 0 8 -6 5 -12 -4 -7 -1 -6 7 2 13 15 47 21 135 24 29 0 39 4 33 12
-7 7 -1 9 19 6 16 -2 32 1 36 8 5 8 10 8 21 -1 11 -9 18 -8 31 2 9 8 14 9 11
4 -4 -6 2 -11 12 -11 15 0 17 3 7 15 -10 12 -9 13 9 3 12 -6 24 -8 28 -4 4 3
12 0 17 -8 9 -12 10 -12 5 3 -3 11 0 17 10 17 9 0 13 -5 9 -12 -4 -7 1 -4 9 6
12 15 16 16 16 5 0 -9 3 -10 8 -3 4 6 15 10 25 8 9 -1 17 2 17 8 0 6 7 4 17
-3 10 -8 14 -9 10 -2 -10 17 13 28 24 12 6 -10 9 -11 9 -1 0 6 7 12 15 12 18
0 57 20 67 35 5 6 8 5 8 -2 0 -7 5 -13 11 -13 5 0 7 5 4 10 -3 6 4 11 17 11
45 2 51 4 55 17 3 8 -2 10 -14 6 -14 -5 -15 -4 -3 4 10 8 18 8 27 0 12 -10 17
-4 14 16 -1 5 5 4 13 -3 13 -11 21 -7 48 21 17 18 26 25 19 15 -8 -10 -9 -17
-3 -17 6 0 14 5 17 10 4 6 12 7 18 3 7 -4 5 2 -3 12 -8 10 -10 16 -3 12 6 -4
15 -3 18 3 5 8 11 7 21 -1 11 -9 14 -8 14 5 0 10 5 14 10 11 6 -3 10 -2 10 4
0 5 9 8 19 6 14 -3 18 1 14 11 -3 8 -1 14 5 12 5 -2 11 2 12 7 2 15 29 27 42
19 7 -5 8 -3 3 6 -6 10 -4 12 7 7 22 -8 30 3 15 21 -8 11 -8 14 0 9 7 -4 14 1
18 13 3 11 9 19 13 19 4 -1 14 -1 22 0 13 1 13 2 0 11 -8 5 -10 10 -3 10 6 0
10 8 8 18 -7 45 34 66 63 32 8 -8 11 -10 8 -4 -3 6 1 11 9 11 8 0 14 -3 13 -6
-2 -24 4 -41 15 -38 6 1 11 -6 11 -15 -1 -10 2 -15 7 -12 8 5 14 -17 10 -38 0
-5 4 -8 10 -8 6 0 9 -7 6 -14 -4 -10 -1 -13 9 -9 10 4 12 0 7 -13 -5 -13 -3
-16 9 -12 10 4 15 1 14 -10 0 -10 5 -16 13 -14 9 2 12 -4 8 -18 -3 -11 -1 -20
5 -20 5 0 7 -4 4 -9 -4 -5 -1 -11 5 -13 6 -2 12 -16 12 -31 0 -15 2 -26 4 -23
9 9 31 -18 26 -31 -3 -7 2 -13 11 -13 10 0 16 -9 16 -25 0 -14 4 -24 9 -22 5
1 9 -2 10 -6 1 -14 31 -38 40 -32 6 3 8 -4 6 -15 -2 -11 -1 -18 4 -16 4 3 16
-7 27 -21 10 -15 24 -32 31 -38 7 -7 9 -15 6 -19 -4 -3 1 -6 10 -6 9 0 17 -5
17 -10 0 -6 12 -23 28 -37 15 -15 20 -22 12 -18 -13 8 -13 6 -1 -8 7 -9 17
-14 22 -11 5 3 9 -1 9 -8 0 -16 36 -49 44 -41 3 4 6 -4 6 -16 0 -18 4 -22 17
-17 10 4 14 4 11 0 -4 -3 0 -13 8 -21 8 -8 12 -18 9 -23 -3 -4 3 -7 13 -6 9 0
16 -4 15 -11 -2 -7 4 -10 12 -7 11 5 13 2 9 -10 -4 -9 -3 -16 2 -15 5 1 16 1
24 0 13 -1 13 -2 0 -11 -11 -7 -12 -10 -2 -10 17 0 42 -25 42 -41 0 -7 3 -9 7
-6 3 4 11 -3 17 -16 6 -12 21 -26 34 -32 12 -5 20 -16 17 -23 -3 -7 0 -10 6
-7 5 4 18 -3 29 -14 13 -16 20 -18 23 -9 4 8 6 7 6 -4 1 -10 8 -18 17 -18 8 0
12 -5 8 -11 -4 -8 0 -8 15 0 17 10 20 9 15 -4 -4 -11 0 -15 16 -15 11 0 18 -5
15 -10 -4 -6 5 -10 20 -10 14 0 24 -4 21 -9 -3 -5 7 -11 22 -14 15 -3 38 -15
52 -27 13 -11 29 -18 36 -16 7 3 16 -4 20 -16 5 -16 8 -18 15 -7 6 10 9 11 9
2 0 -7 7 -13 16 -13 8 0 12 -4 9 -10 -7 -12 46 -14 61 -3 5 5 2 1 -8 -8 -16
-15 -16 -18 -2 -23 8 -3 13 -2 10 3 -3 5 5 8 18 8 18 0 23 -4 19 -16 -5 -13
-3 -14 8 -3 7 6 17 12 22 12 4 0 5 -6 1 -12 -4 -7 -4 -10 1 -6 4 4 14 3 20 -2
9 -7 17 -5 26 7 13 16 12 17 -2 5 -14 -10 -18 -10 -23 3 -3 10 -2 13 5 10 5
-4 17 -1 26 7 12 9 15 9 9 0 -4 -7 -1 -12 8 -12 9 0 16 6 17 13 0 6 7 -3 15
-20 13 -31 34 -45 34 -23 0 7 7 7 21 -1 12 -6 19 -7 15 -1 -3 5 8 10 27 9 17
0 41 4 52 8 19 8 19 7 5 -11 -14 -17 -14 -18 1 -6 9 7 24 10 33 6 9 -4 16 -1
16 6 0 10 3 10 15 0 13 -11 14 -10 10 3 -5 12 2 15 39 13 34 -1 43 1 35 10 -8
9 -4 12 15 10 16 -2 23 1 19 7 -4 6 0 8 10 4 10 -3 17 -2 17 3 0 6 7 10 15 10
8 0 15 5 15 10 0 6 9 10 21 10 11 0 18 4 15 9 -3 5 1 12 10 15 10 4 13 2 9 -7
-4 -6 1 -3 9 7 9 11 16 16 16 10 0 -5 5 -2 10 6 9 15 13 16 46 19 8 0 12 6 9
11 -3 6 0 10 8 10 8 0 21 8 28 17 12 14 12 16 -1 9 -8 -4 -6 -1 4 8 10 8 22
13 27 11 4 -3 5 4 2 15 -5 19 5 26 31 21 5 -1 3 5 -4 14 -11 14 -11 16 1 13 8
-2 13 3 11 10 -1 8 2 11 8 7 5 -3 10 -2 10 3 0 6 8 9 17 8 10 0 20 9 24 24 4
14 7 20 8 13 1 -7 8 -10 17 -6 13 5 13 7 2 14 -10 7 -10 9 2 10 8 1 18 1 23 0
6 -1 11 29 9 50 -1 4 7 5 17 2 10 -3 22 0 25 6 4 6 1 9 -7 5 -8 -3 -18 0 -23
7 -4 8 -3 10 4 5 7 -4 12 -1 12 8 0 9 7 16 16 16 10 0 14 5 10 16 -3 8 -2 12
4 9 6 -3 10 -1 10 5 0 6 6 8 13 4 10 -6 10 -4 0 7 -7 7 -13 18 -13 24 0 5 4 3
10 -5 11 -18 16 -13 25 25 7 28 6 29 -7 11 -13 -16 -15 -16 -15 -2 0 16 7 19
42 17 17 -1 17 1 -5 13 l-25 15 35 -3 c30 -3 32 -2 16 9 -10 8 -23 12 -29 11
-7 -2 -9 -1 -4 1 4 3 4 9 1 15 -4 6 2 8 17 3 19 -5 21 -4 9 4 -8 6 -11 11 -6
11 5 0 3 7 -4 15 -10 12 -10 19 -2 27 18 18 14 31 -5 23 -14 -5 -15 -4 -6 6 9
9 16 9 26 1 11 -9 14 -8 14 3 0 8 -4 12 -9 9 -4 -3 -8 0 -8 6 0 6 -4 9 -9 5
-5 -3 -12 -1 -16 4 -3 6 3 8 15 6 11 -2 23 1 26 7 4 6 3 8 -3 5 -6 -4 -14 1
-19 11 -10 23 -12 72 -3 78 5 2 6 -5 4 -16 -2 -11 0 -18 6 -15 5 4 9 1 9 -6 0
-7 3 -10 6 -6 3 3 2 12 -2 19 -13 20 -13 61 0 77 8 11 8 13 -1 8 -9 -6 -11 2
-9 28 1 20 -2 39 -7 42 -6 4 -7 1 -2 -7 5 -9 4 -11 -4 -6 -8 5 -9 12 -2 20 6
7 6 17 1 26 -14 22 -12 32 4 18 8 -7 12 -16 9 -20 -2 -5 1 -8 7 -8 6 0 8 -5 4
-12 -4 -7 -3 -8 4 -4 9 5 9 13 0 29 -7 12 -11 28 -9 36 1 7 -2 10 -7 7 -5 -3
-15 1 -21 8 -10 12 -8 14 12 12 18 -2 24 1 22 13 -1 9 2 21 7 28 6 8 4 10 -10
6 -11 -2 -23 0 -26 6 -4 6 -1 9 7 5 8 -3 18 0 23 7 4 8 3 10 -4 5 -7 -4 -12
-1 -12 9 0 11 -5 15 -15 11 -22 -8 -18 2 5 14 15 8 20 8 18 -1 -2 -6 5 -13 14
-14 15 -3 14 1 -4 26 -21 27 -36 41 -23 19 3 -5 1 -10 -5 -10 -15 0 -7 25 8
26 26 3 26 5 2 19 -15 9 -19 14 -10 15 13 0 13 1 0 11 -12 8 -9 9 10 5 14 -3
19 -3 13 0 -7 3 -13 12 -13 19 0 8 -8 16 -18 19 -10 4 -19 13 -19 21 0 8 4 12
9 9 4 -3 8 2 8 11 0 10 -5 13 -12 9 -9 -5 -8 -2 1 9 8 10 11 21 7 24 -4 4 -11
2 -15 -6 -6 -10 -10 -9 -14 4 -4 9 -3 13 3 10 6 -3 10 1 10 10 0 9 4 13 10 10
6 -4 7 1 3 11 -5 15 -7 15 -15 0 -5 -9 -13 -16 -19 -16 -5 0 -2 11 7 25 9 14
13 25 9 25 -4 0 -1 8 6 17 9 10 9 14 2 10 -16 -10 -32 21 -27 51 4 22 3 22
-12 7 -9 -9 -19 -13 -23 -9 -3 4 -1 9 6 11 10 4 10 7 0 18 -7 7 -16 10 -22 7
-5 -3 1 7 15 23 25 27 25 28 2 16 -21 -11 -22 -11 -10 8 6 11 16 17 22 14 5
-3 6 -1 2 6 -6 9 -11 9 -22 0 -11 -9 -14 -9 -14 0 0 7 -5 9 -12 5 -7 -4 -8 -3
-4 5 4 6 11 9 16 6 4 -3 10 2 14 10 3 8 1 17 -5 20 -5 4 -6 11 -3 17 4 7 2 8
-5 4 -9 -6 -9 -11 0 -22 9 -11 8 -14 -3 -14 -8 0 -14 10 -14 25 0 15 6 25 15
25 11 0 10 5 -5 22 -10 12 -13 18 -6 14 7 -4 12 -2 12 4 0 7 6 10 14 7 20 -8
28 4 15 20 -6 7 -8 13 -3 13 5 0 3 4 -4 9 -11 7 -10 9 3 14 9 4 13 3 10 -3 -3
-6 -1 -10 5 -10 6 0 8 -5 4 -12 -4 -7 -3 -8 5 -4 6 4 9 12 5 17 -3 5 0 17 7
25 10 12 9 13 -6 8 -13 -5 -16 -4 -11 4 4 7 15 12 24 13 11 0 12 3 5 6 -7 2
-13 9 -13 14 0 6 5 7 12 3 8 -5 9 -2 5 9 -3 10 -2 17 3 17 6 0 10 -6 10 -12 0
-7 7 0 15 16 19 36 19 36 -5 36 -11 0 -20 4 -20 10 0 5 7 7 15 4 11 -4 13 -2
9 9 -3 8 -1 18 5 22 6 3 9 0 5 -8 -3 -8 0 -18 7 -23 7 -4 10 -3 5 4 -3 6 -2
13 4 17 5 3 10 1 10 -6 0 -7 3 -9 6 -6 4 4 2 13 -5 20 -14 17 11 43 30 31 8
-5 9 -3 4 6 -6 10 -4 12 8 7 12 -4 14 -2 10 11 -3 9 -10 22 -14 28 -5 6 -3 11
6 11 8 0 15 -5 15 -10 0 -6 2 -8 5 -5 10 9 -7 38 -18 31 -6 -3 -7 -1 -3 6 4 6
12 9 17 6 5 -4 9 -1 9 5 0 6 4 9 8 6 5 -3 21 2 36 10 36 18 52 18 60 -2 3 -8
11 -12 18 -8 8 5 9 0 6 -14 -4 -12 -2 -20 2 -17 5 3 10 2 13 -2 2 -5 2 -1 0 7
-3 13 -1 13 9 -1 7 -8 21 -18 31 -22 11 -4 21 -16 24 -27 3 -11 9 -17 14 -14
5 3 9 0 9 -6 0 -6 5 -8 11 -5 6 4 9 1 7 -7 -2 -7 0 -13 3 -13 4 0 16 -8 26
-18 11 -9 23 -14 26 -10 4 3 7 1 7 -5 0 -16 41 -62 54 -62 6 0 17 -9 24 -20 7
-11 21 -20 32 -20 11 0 20 -5 20 -11 0 -8 6 -7 17 2 9 8 14 9 10 3 -7 -13 16
-38 26 -28 8 8 49 -15 43 -25 -3 -4 6 -6 19 -3 14 2 31 -2 40 -12 9 -9 21 -14
26 -11 5 4 9 1 9 -6 0 -6 8 -9 19 -6 13 3 28 -4 42 -19 13 -14 29 -22 36 -20
7 3 15 1 19 -5 3 -6 13 -8 21 -5 8 3 12 2 9 -3 -3 -5 1 -12 10 -15 8 -3 12 -2
9 4 -3 6 -1 10 4 10 10 0 15 -14 12 -33 -1 -5 3 -6 9 -2 6 3 8 10 5 15 -3 5 0
12 7 16 7 4 10 4 6 -1 -12 -13 12 -35 29 -28 12 5 14 3 8 -7 -5 -9 -4 -11 4
-6 6 4 9 11 6 16 -3 5 0 12 6 16 8 4 9 3 5 -4 -4 -7 -2 -12 4 -12 6 0 8 -5 4
-12 -4 -7 -3 -8 4 -4 6 4 9 14 6 24 -3 9 1 6 9 -8 18 -29 19 -29 40 -11 13 10
20 11 30 2 8 -6 17 -8 20 -5 11 12 57 13 57 1 0 -5 3 -7 7 -4 3 4 13 1 22 -6
14 -11 14 -10 2 6 -7 9 -10 17 -5 18 5 0 19 2 31 5 12 2 24 0 27 -5 3 -4 -6
-7 -19 -5 -14 1 -23 -1 -20 -5 5 -9 42 -8 51 2 11 11 36 8 29 -3 -3 -5 -1 -10
5 -10 7 0 10 6 7 14 -3 8 2 20 11 28 15 12 16 11 3 -5 -12 -15 -10 -17 18 -18
51 -2 56 -4 53 -19 -3 -11 0 -11 12 0 9 7 16 9 16 5 0 -4 7 -2 15 5 13 11 13
15 3 21 -9 6 -9 9 -1 9 6 0 15 -5 18 -10 4 -6 10 -8 15 -5 5 3 11 1 15 -4 3
-6 -3 -8 -15 -6 -11 2 -20 0 -20 -4 0 -5 14 -8 30 -7 32 1 36 6 19 23 -8 8 -8
13 0 18 6 3 10 1 9 -6 -2 -6 3 -14 11 -17 9 -3 11 0 6 8 -5 9 -4 11 4 6 9 -6
9 -11 -1 -24 -12 -14 -10 -14 10 -3 12 6 28 9 34 5 8 -5 9 -2 5 10 -5 12 -3
15 6 9 6 -4 20 -9 31 -10 14 -3 17 1 12 14 -6 15 -5 16 5 5 14 -13 33 -17 26
-4 -3 4 25 7 61 6 64 0 98 9 114 31 5 6 8 6 8 -1 0 -12 65 -13 77 -1 3 4 13 1
21 -6 13 -10 15 -9 9 5 -5 15 -2 16 19 8 17 -7 23 -7 19 0 -6 9 9 11 92 12 20
1 30 5 27 13 -3 8 5 11 26 10 28 -2 35 5 31 29 -1 5 4 4 12 -3 12 -9 16 -8 21
6 6 15 8 15 16 3 8 -13 10 -13 10 1 0 10 8 15 23 14 12 -1 27 1 32 5 6 4 25
11 43 15 19 4 30 11 26 17 -4 7 -2 8 5 4 6 -4 19 -2 28 6 14 11 16 11 9 -2 -4
-8 0 -6 8 4 15 18 16 18 16 2 0 -9 5 -14 10 -11 6 3 10 -1 10 -9 0 -9 5 -16
11 -16 5 0 7 5 3 12 -4 7 -3 8 4 4 6 -4 8 -14 5 -23 -4 -11 -3 -14 5 -9 11 6
16 -5 13 -26 0 -4 9 -10 21 -13 16 -6 18 -9 7 -16 -10 -6 -7 -9 11 -10 14 0
19 -3 13 -6 -10 -3 -10 -8 1 -19 17 -16 30 -19 21 -4 -4 6 1 7 11 3 11 -4 13
-8 6 -11 -7 -2 -12 -11 -12 -19 0 -10 6 -13 16 -9 12 4 15 2 11 -9 -4 -8 -1
-17 5 -21 7 -5 8 -2 3 6 -5 8 -4 11 3 6 6 -3 9 -15 7 -26 -5 -27 3 -25 16 2 8
20 9 19 4 -6 -5 -25 -4 -28 8 -17 12 9 17 9 23 0 5 -8 3 -9 -7 -4 -11 7 -12 6
-2 -7 7 -8 9 -19 5 -23 -4 -5 -1 -5 6 -1 7 4 10 11 7 16 -3 5 4 8 15 7 11 -1
23 -10 26 -20 6 -18 6 -18 20 0 18 25 17 33 -3 27 -15 -5 -15 -4 -3 4 8 6 19
7 25 3 5 -5 19 -4 30 0 18 8 17 9 -4 5 -17 -4 -21 -2 -13 6 8 8 7 15 -6 25
-15 12 -14 13 7 3 28 -14 51 1 33 22 -8 10 -5 20 10 38 l20 25 -16 -27 c-10
-18 -12 -28 -5 -28 6 0 13 9 16 20 3 11 9 18 13 15 4 -2 4 13 0 35 -4 21 -4
39 -1 38 19 -2 22 4 11 18 -11 12 -11 15 1 12 8 -2 13 3 12 9 -2 7 0 12 5 12
19 -3 25 2 12 11 -11 7 -11 10 -2 10 7 0 11 4 8 8 -3 5 1 9 9 9 8 0 15 -4 15
-9 0 -4 -5 -8 -12 -8 -6 0 -8 -3 -5 -6 4 -4 14 -1 22 6 15 12 14 15 -7 27 -22
13 -22 13 -2 11 11 -2 21 1 22 6 0 5 6 13 14 18 10 8 10 9 -2 5 -8 -2 -14 -10
-12 -16 1 -7 -2 -10 -8 -6 -6 4 -4 15 6 31 15 21 33 36 20 16 -3 -5 1 -9 9 -9
8 0 12 4 9 8 -2 4 4 13 13 19 15 9 14 10 -7 5 -23 -6 -23 -5 -7 8 9 8 17 19
17 26 0 6 8 11 18 11 9 0 13 4 7 8 -5 4 -11 13 -13 21 -3 12 0 12 12 2 11 -9
16 -9 22 0 4 7 3 9 -3 6 -6 -4 -10 4 -10 18 0 14 3 28 8 31 5 3 6 -1 3 -9 -3
-8 -1 -17 4 -21 5 -3 9 0 9 7 0 7 4 21 9 31 6 15 4 17 -7 11 -8 -5 -11 -5 -6
1 5 5 13 10 18 10 5 1 12 2 15 3 4 0 1 7 -5 15 -10 12 -8 14 11 9 13 -3 19 -1
13 4 -5 4 -10 17 -11 29 0 16 5 20 20 17 17 -4 18 -3 6 6 -10 7 -11 11 -2 11
6 0 12 5 12 11 0 5 -6 7 -12 3 -10 -5 -10 -3 0 7 11 12 14 12 22 -1 6 -9 10
-10 10 -3 0 6 -5 15 -11 19 -8 5 -6 10 5 16 14 8 15 12 5 24 -7 8 -8 14 -3 13
21 -4 35 2 28 12 -3 6 -1 15 5 19 7 4 13 17 14 28 1 15 8 22 21 22 20 0 20 0
0 15 -13 11 -14 14 -4 13 10 -2 15 5 16 22 0 15 5 24 13 22 9 -2 11 3 7 14 -6
15 -4 15 11 3 15 -12 16 -12 10 3 -3 9 -1 19 6 22 9 3 9 5 0 5 -7 1 -13 5 -13
11 0 5 3 9 8 7 4 -1 8 2 9 6 1 5 10 16 20 24 17 14 17 14 -1 9 -15 -5 -17 -4
-8 7 7 8 9 16 6 20 -3 3 5 3 18 0 16 -3 19 -2 10 5 -20 13 -19 22 1 33 9 6 15
15 11 20 -3 5 0 16 6 24 7 8 10 26 8 40 -4 19 -2 23 7 15 9 -8 12 -4 10 15 -2
17 2 25 11 25 9 0 12 5 9 10 -4 6 -11 7 -17 4 -7 -4 -8 -2 -4 5 4 6 11 9 16 6
13 -8 18 30 7 51 -10 18 -9 18 8 4 10 -8 16 -10 12 -3 -4 6 -1 14 5 16 10 4
10 6 0 6 -7 1 -10 6 -7 11 3 6 1 10 -6 10 -6 0 -9 8 -7 18 4 15 0 18 -18 16
-13 -1 -27 3 -31 8 -3 6 -1 8 5 4 6 -3 14 -2 17 4 4 6 3 10 -2 9 -4 -1 -19 -1
-33 0 -21 1 -22 3 -10 12 12 8 9 10 -13 6 -18 -3 -30 0 -34 9 -3 8 -13 14 -22
14 -14 0 -14 -2 -1 -10 8 -5 10 -10 4 -10 -5 0 -20 9 -32 20 -25 24 -36 26
-29 6 4 -10 1 -13 -8 -9 -8 3 -13 9 -10 13 5 8 -17 20 -45 26 -8 2 -21 -3 -29
-9 -12 -10 -14 -9 -8 6 6 15 3 17 -14 12 -13 -5 -19 -3 -15 3 3 5 -5 10 -19
10 -16 0 -22 -5 -18 -12 4 -7 1 -6 -9 1 -8 7 -18 9 -23 5 -4 -4 -3 2 3 13 9
17 7 21 -9 21 -12 0 -18 -5 -14 -14 2 -7 0 -10 -5 -7 -6 3 -10 13 -10 21 0 8
-4 14 -9 14 -5 0 -8 -8 -6 -17 1 -10 0 -13 -2 -6 -2 7 -10 11 -16 9 -7 -1 -9
-1 -4 1 17 10 6 23 -12 14 -14 -8 -24 -6 -40 8 -11 10 -18 20 -15 24 3 3 -1 5
-8 4 -34 -1 -49 4 -42 15 4 7 3 8 -5 4 -6 -4 -9 -12 -6 -17 3 -5 -1 -6 -9 -3
-9 3 -16 10 -16 16 0 5 -5 6 -10 3 -6 -4 -7 -12 -3 -18 3 -7 -4 -3 -17 8 -13
11 -20 14 -16 8 4 -7 2 -13 -3 -13 -15 0 -14 27 2 33 6 2 -2 4 -20 3 -17 0
-29 -4 -26 -9 2 -4 9 -5 14 -2 5 3 6 -1 2 -10 -4 -12 -8 -13 -13 -5 -4 7 -13
10 -18 6 -7 -4 -9 1 -7 14 3 18 1 19 -18 8 -19 -10 -20 -9 -10 3 10 12 8 15
-8 16 -11 1 -17 -2 -15 -6 3 -4 -7 -7 -22 -6 -28 2 -29 6 -16 39 7 17 5 17
-14 -2 -27 -27 -45 -29 -38 -4 4 13 0 18 -16 19 -11 1 -25 8 -29 15 -5 7 -9 8
-9 3 0 -6 6 -17 13 -25 10 -12 9 -12 -3 -3 -25 18 -26 19 -43 4 -11 -9 -17
-10 -17 -2 0 10 13 15 33 12 4 0 7 4 7 10 0 7 -11 8 -30 4 -20 -4 -30 -3 -30
5 0 6 5 8 12 4 7 -5 8 -3 3 5 -5 9 -10 10 -18 2 -14 -14 -30 -14 -22 -1 3 6 1
10 -4 10 -6 0 -11 -7 -11 -15 0 -8 -4 -15 -10 -15 -5 0 -7 7 -4 15 4 10 0 15
-14 15 -11 0 -23 -6 -25 -12 -3 -8 -6 -7 -6 4 -1 9 -5 19 -10 22 -5 4 -7 -4
-5 -16 2 -13 2 -17 -2 -10 -3 6 -10 10 -15 7 -5 -4 -6 2 -2 12 6 16 5 16 -10
4 -11 -8 -17 -9 -17 -3 0 6 -6 9 -14 6 -8 -3 -17 0 -22 7 -5 8 -3 10 7 4 8 -5
11 -4 6 0 -4 5 -18 10 -30 12 -17 2 -19 1 -7 -7 12 -7 10 -9 -7 -7 -12 0 -20
4 -17 8 2 4 0 10 -6 14 -5 3 -10 2 -10 -3 0 -5 -14 -6 -31 -4 -24 4 -30 2 -24
-8 5 -8 4 -11 -3 -6 -6 4 -9 12 -6 19 3 9 -6 13 -30 13 -19 0 -32 -4 -29 -10
4 -5 -1 -7 -10 -3 -11 4 -18 -1 -23 -16 -4 -12 -12 -25 -18 -29 -8 -6 -8 -8 1
-8 9 0 8 -7 -2 -27 -15 -28 -3 -59 18 -46 6 3 7 1 3 -6 -4 -6 -12 -9 -17 -6
-5 4 -9 1 -9 -4 0 -6 6 -11 13 -11 8 0 7 -4 -3 -10 -10 -6 -11 -10 -2 -10 6 0
12 -7 12 -16 0 -9 5 -12 13 -8 8 5 8 2 -2 -9 -12 -15 -11 -17 5 -17 16 0 17
-2 4 -10 -8 -5 -10 -10 -4 -10 6 0 10 -17 8 -40 -1 -30 2 -40 14 -40 12 0 12
-4 -4 -21 -18 -20 -18 -21 0 -18 12 3 20 -2 21 -13 2 -10 -2 -18 -8 -18 -8 0
-9 -3 -1 -8 14 -9 24 -38 17 -46 -11 -11 -14 -68 -3 -61 6 3 7 -1 4 -10 -4 -9
-13 -14 -22 -10 -12 4 -12 2 -4 -8 15 -17 3 -30 -14 -16 -9 8 -15 5 -24 -10
-6 -12 -16 -20 -23 -18 -7 1 -11 -6 -11 -16 2 -14 -1 -15 -12 -6 -11 9 -15 8
-20 -5 -3 -9 -10 -13 -15 -10 -5 3 -9 1 -9 -5 0 -6 -7 -7 -17 -4 -9 4 -14 2
-10 -3 3 -6 -3 -16 -15 -23 -16 -10 -19 -10 -13 1 3 7 -3 2 -14 -11 -13 -14
-21 -18 -21 -10 -1 10 -4 9 -14 -3 -7 -10 -16 -15 -19 -11 -4 3 -7 1 -7 -7 0
-10 -3 -10 -16 0 -12 11 -15 11 -12 -1 2 -8 -3 -13 -9 -12 -7 2 -13 -2 -13 -7
0 -5 -6 -9 -12 -7 -7 1 -12 -3 -11 -10 2 -7 -4 -10 -12 -7 -8 4 -15 1 -15 -5
0 -6 -3 -10 -7 -10 -22 4 -33 -2 -27 -13 5 -8 2 -9 -9 -5 -10 4 -17 2 -17 -4
0 -6 -7 -8 -16 -5 -10 4 -13 2 -8 -6 5 -8 2 -9 -10 -5 -10 4 -19 1 -23 -8 -4
-12 -9 -13 -19 -4 -11 9 -15 8 -19 -3 -4 -9 -16 -14 -28 -14 -12 1 -28 -2 -35
-7 -9 -7 -11 -6 -7 6 4 8 1 18 -6 23 -7 4 -10 3 -6 -3 8 -12 -20 -26 -34 -17
-5 3 -9 1 -9 -5 0 -6 -7 -7 -17 -4 -11 4 -14 3 -9 -5 5 -8 -4 -12 -29 -12 -21
0 -38 -6 -41 -14 -3 -8 -13 -12 -25 -9 -11 3 -19 0 -19 -6 0 -7 -4 -9 -10 -6
-5 3 -10 2 -10 -4 0 -5 -8 -8 -17 -6 -10 1 -26 -2 -35 -7 -12 -6 -18 -5 -18 2
0 6 -5 8 -10 5 -6 -4 -8 -10 -5 -15 3 -5 0 -12 -6 -16 -7 -4 -9 -3 -6 3 4 6 0
14 -9 17 -8 3 -12 2 -9 -4 4 -6 -2 -7 -17 -1 -13 4 -33 7 -45 5 -12 -2 -26 -4
-30 -5 -22 -4 -34 2 -27 14 5 8 2 8 -9 -2 -15 -12 -17 -11 -17 3 0 9 -6 16
-12 17 -61 5 -85 4 -95 -4 -8 -5 -13 -6 -13 0 0 5 -9 9 -20 10 -24 2 -52 27
-42 39 4 5 -2 2 -12 -6 -11 -8 -17 -10 -13 -4 4 7 -2 14 -14 17 -12 3 -18 10
-14 16 3 7 0 8 -9 5 -9 -3 -16 -1 -16 6 0 6 -4 8 -10 5 -5 -3 -10 1 -10 9 0
14 -11 19 -37 15 -3 0 -10 6 -15 15 -5 9 -13 14 -19 11 -5 -4 -9 -1 -9 4 0 6
-6 11 -14 11 -7 0 -20 8 -27 18 -13 16 -13 16 6 2 20 -14 20 -14 2 7 -11 13
-25 19 -35 16 -10 -4 -13 -2 -8 5 4 7 1 12 -8 12 -9 0 -16 7 -16 16 0 8 -4 12
-10 9 -13 -8 -13 1 1 27 6 12 7 18 1 14 -5 -3 -13 1 -16 10 -3 9 -11 12 -18 8
-8 -5 -7 0 2 11 9 11 10 16 2 11 -13 -8 -34 9 -45 37 -4 10 -2 17 6 17 9 0 8
3 -1 9 -10 6 -8 10 10 15 19 5 20 8 8 16 -8 5 -10 10 -3 10 6 0 9 9 6 20 -3
13 0 20 8 20 9 0 10 3 3 8 -6 4 -13 17 -17 30 -5 20 -3 21 10 10 14 -12 15
-11 5 9 -15 28 -15 36 1 27 6 -4 4 2 -6 13 -12 14 -15 23 -7 28 5 3 7 11 4 17
-4 7 -2 8 4 4 8 -4 12 0 12 11 0 11 6 25 13 32 10 11 10 13 0 7 -17 -9 -17 6
0 23 9 11 9 13 0 7 -7 -4 -13 -2 -13 3 0 6 6 11 13 11 8 0 7 4 -3 10 -8 5 -11
10 -6 10 5 0 3 6 -3 14 -9 11 -9 15 0 18 9 3 9 9 -1 27 -6 13 -7 21 -2 17 7
-4 9 9 7 36 -2 24 -4 47 -4 51 -1 5 -5 6 -9 3 -5 -3 -9 1 -9 9 0 8 3 12 7 10
4 -2 7 2 7 10 0 8 -4 12 -9 9 -12 -8 -10 10 3 23 7 7 8 17 3 25 -12 19 -14 38
-3 38 5 0 9 5 9 11 0 5 -4 8 -9 4 -5 -3 -3 8 6 25 12 25 18 29 29 19 11 -9 14
-9 14 0 0 7 5 9 10 6 6 -4 7 -11 4 -17 -5 -7 -2 -8 7 -2 24 14 39 13 39 -4 0
-13 3 -12 15 4 13 16 14 16 9 2 -6 -16 4 -23 29 -19 4 0 7 -4 7 -10 0 -5 5 -7
10 -4 6 3 10 1 10 -5 0 -6 5 -8 10 -5 6 3 10 0 10 -8 0 -8 7 -18 16 -21 10 -4
13 -2 9 7 -4 6 0 4 8 -5 8 -10 17 -15 20 -11 4 3 7 1 7 -6 0 -7 5 -9 11 -5 10
6 31 -1 83 -28 12 -7 16 -6 11 1 -3 6 -2 11 4 11 5 0 13 -5 16 -10 5 -7 11 -8
19 -1 7 6 17 6 26 1 8 -5 19 -6 25 -2 5 4 20 7 32 7 17 1 20 -2 11 -12 -6 -8
-8 -16 -4 -20 3 -3 6 -1 6 5 0 6 17 10 40 9 22 -1 40 -5 40 -8 0 -3 15 -5 33
-4 17 2 38 -3 46 -9 12 -8 13 -8 7 2 -6 10 -1 12 21 9 15 -2 36 0 47 5 13 7
16 7 12 -1 -9 -14 0 -14 26 0 12 7 18 7 14 1 -4 -6 2 -8 14 -5 11 3 17 10 14
15 -4 6 4 4 17 -3 23 -12 23 -11 9 6 -8 10 -10 16 -4 12 15 -9 75 3 69 13 -3
5 6 7 19 6 14 -2 27 3 30 10 3 8 15 14 27 14 13 0 31 8 42 17 12 11 17 12 12
4 -5 -10 -4 -12 3 -7 7 4 12 15 12 24 1 14 2 14 12 -3 11 -18 12 -18 18 -1 6
17 7 17 23 2 9 -10 17 -12 17 -6 0 6 5 8 10 5 6 -3 10 -1 10 5 0 6 5 8 13 4 7
-5 6 0 -3 11 -14 17 -13 18 3 12 11 -4 17 -2 17 7 0 8 8 13 18 12 10 0 16 5
14 13 -3 12 0 12 12 1 16 -12 22 -4 17 23 -1 5 4 5 10 1 7 -4 20 3 31 17 11
13 17 18 13 12 -3 -7 -1 -13 6 -13 7 0 9 10 7 25 -4 20 -3 23 8 14 13 -11 19
-2 15 23 0 4 7 4 16 1 11 -4 14 -3 9 5 -4 7 -2 12 4 12 6 0 8 5 4 13 -5 7 -1
6 10 -2 16 -13 17 -13 14 5 -2 10 2 18 9 17 6 -1 17 11 25 27 11 27 25 35 51
31 7 -1 11 15 8 33 -1 5 5 3 14 -4 9 -7 15 -9 14 -4 -4 22 2 45 10 40 5 -3 11
8 15 25 3 17 10 28 15 25 10 -7 9 13 -2 30 -8 14 16 37 28 26 5 -4 5 -1 1 6
-4 7 -2 20 6 29 11 14 11 16 -2 8 -13 -8 -13 -7 -1 8 7 9 10 17 5 17 -5 0 -1
5 9 11 14 8 16 14 6 25 -8 10 -8 14 0 14 6 0 11 7 11 15 0 8 6 15 13 15 8 0 7
4 -3 10 -10 6 -11 10 -3 10 7 0 12 3 12 8 -3 19 2 33 11 27 6 -3 10 1 10 9 0
28 1 31 14 38 8 4 12 25 11 55 -1 26 3 51 9 55 8 5 7 8 -2 8 -12 0 -10 7 10
41 1 3 -3 13 -11 22 -11 14 -11 17 0 17 9 0 10 3 4 8 -12 8 -14 77 -3 88 4 4
3 13 -2 19 -7 9 -6 14 4 18 9 4 12 14 9 27 -4 14 -1 20 8 18 8 -2 13 3 11 11
-2 9 3 11 14 7 14 -5 15 -4 4 9 -11 13 -10 14 2 10 11 -5 15 0 14 17 -1 13 1
35 5 49 4 16 2 32 -4 38 -8 8 -8 11 0 11 7 0 9 12 4 33 -3 17 -6 51 -6 75 0
23 -3 42 -7 42 -4 0 -3 12 3 26 8 23 8 25 -5 15 -15 -13 -16 -12 -6 34 1 6 1
13 0 18 -5 14 -8 27 -9 41 0 8 -8 22 -17 30 -8 9 -13 16 -9 16 3 0 0 10 -7 22
-7 13 -14 34 -15 48 -2 14 -12 31 -21 39 -13 10 -14 14 -4 18 10 4 9 9 -4 24
-9 10 -21 16 -26 13 -6 -4 -5 4 2 16 7 13 8 20 2 16 -6 -3 -13 3 -17 14 -4 11
-11 17 -17 14 -6 -4 -9 -1 -6 7 3 8 -1 20 -9 27 -7 8 -11 18 -8 23 4 5 -1 9
-9 9 -8 0 -18 5 -22 12 -4 7 -3 8 4 4 8 -5 10 -2 6 8 -3 9 -9 14 -14 11 -12
-7 -48 38 -45 57 2 10 -5 20 -15 23 -11 3 -22 15 -25 26 -4 10 -11 19 -16 19
-6 0 -7 -5 -3 -12 5 -7 3 -8 -5 -4 -7 5 -10 14 -7 22 3 8 2 14 -2 14 -4 0 -8
9 -8 19 0 11 4 17 8 15 7 -4 11 7 10 26 0 3 32 5 71 5 40 0 72 4 74 11 2 5 17
9 34 8 21 -1 29 2 26 10 -3 7 1 13 9 13 7 0 10 -5 7 -11 -4 -6 3 -3 14 7 15
13 23 15 28 7 6 -9 10 -9 16 1 7 12 9 11 9 0 0 -11 4 -10 16 5 8 10 13 14 10
7 -4 -6 -2 -14 3 -17 5 -3 11 4 15 17 5 18 8 20 16 7 6 -10 10 -11 10 -3 0 7
6 10 14 7 8 -3 17 0 22 7 5 8 3 10 -6 4 -8 -5 -11 -4 -6 3 4 6 14 8 23 5 9 -4
14 -2 10 3 -4 6 5 9 23 6 21 -3 32 1 42 17 7 12 17 21 22 21 4 0 3 -7 -4 -15
-7 -9 -10 -18 -6 -22 3 -3 6 -1 6 6 0 9 8 11 21 8 17 -5 18 -3 7 10 -12 14
-11 15 8 5 18 -9 24 -9 34 3 7 9 15 13 18 10 3 -3 12 1 20 8 13 10 15 9 8 -3
-7 -13 -6 -13 6 0 14 16 33 23 61 22 10 0 15 4 11 10 -5 7 -1 9 9 5 10 -3 17
-2 17 4 0 6 13 8 31 5 23 -3 28 -2 20 8 -8 10 -4 12 19 11 17 -1 30 3 30 9 1
6 7 -3 14 -20 16 -36 32 -49 41 -34 4 6 11 8 16 4 6 -3 5 -12 -3 -22 -11 -14
-10 -15 6 -9 13 5 17 3 13 -7 -3 -8 1 -17 9 -20 8 -3 12 -1 9 4 -3 6 1 7 10 4
11 -5 13 -10 5 -19 -9 -11 -6 -13 15 -11 20 3 23 1 14 -11 -7 -7 -9 -16 -5
-20 3 -3 6 -2 6 4 0 5 7 10 15 10 11 0 12 -4 4 -13 -8 -10 -6 -12 11 -9 12 2
29 -2 37 -10 8 -8 20 -15 26 -15 7 0 6 4 -3 10 -9 6 -10 10 -3 10 6 0 18 -7
26 -15 8 -8 17 -11 21 -8 3 4 6 1 6 -6 0 -9 5 -9 21 0 16 8 20 8 14 -1 -4 -7
1 -13 14 -17 12 -3 18 -10 14 -17 -4 -6 2 -4 12 4 11 9 16 10 11 2 -4 -6 -2
-12 3 -12 6 0 11 5 11 11 0 8 5 7 15 -1 13 -10 19 -10 34 4 13 11 21 14 26 7
4 -7 12 -8 23 -2 11 6 24 6 35 0 12 -7 17 -6 17 3 0 9 3 9 10 -2 8 -12 10 -12
16 3 5 14 9 15 20 6 12 -10 13 -9 8 4 -4 12 -1 15 15 12 12 -2 19 0 16 6 -4 5
1 9 9 9 9 0 16 5 16 11 0 5 4 8 9 4 5 -3 16 2 25 11 9 8 22 12 28 8 7 -4 10
-4 6 0 -12 13 15 35 29 24 9 -7 11 -4 8 10 -3 16 1 19 18 14 19 -5 20 -3 9 10
-11 13 -10 16 5 14 10 0 17 4 16 11 -2 6 6 15 17 18 11 4 18 11 15 16 -4 5 -1
9 5 9 7 0 9 7 6 16 -3 8 -2 12 3 9 5 -3 12 -1 16 5 3 5 0 10 -7 11 -7 0 -3 4
9 9 12 5 24 21 28 39 4 17 11 29 16 26 5 -4 6 1 3 9 -3 9 -2 16 4 16 6 0 9 12
7 26 -1 16 2 23 9 21 11 -4 16 29 16 101 0 15 4 21 13 17 6 -4 4 0 -5 8 -19
15 -25 33 -9 22 5 -3 3 8 -5 25 -9 17 -13 39 -9 51 5 15 4 19 -4 15 -6 -4 -11
-2 -11 3 0 6 6 11 13 11 8 0 7 4 -3 10 -8 5 -10 10 -5 10 6 0 2 5 -8 11 -9 6
-15 14 -12 20 4 5 1 9 -5 9 -6 0 -8 5 -5 10 3 6 -1 13 -10 16 -13 6 -14 8 -3
15 11 7 11 9 -1 9 -7 0 -11 6 -8 14 3 8 -1 17 -10 20 -8 4 -13 13 -9 21 5 14
-5 20 -27 16 -5 -1 -6 3 -2 8 8 13 -65 87 -81 83 -9 -2 -11 3 -7 13 4 12 1 16
-13 13 -12 -2 -18 2 -16 10 1 8 -2 11 -8 7 -5 -3 -10 -2 -10 3 0 5 -13 8 -30
7 -23 -1 -27 1 -19 11 8 9 5 11 -10 7 -13 -3 -21 -1 -21 6 0 7 -4 9 -10 6 -5
-3 -10 -1 -10 5 0 6 -4 8 -10 5 -5 -3 -10 -1 -10 5 0 8 -6 8 -20 0 -12 -6 -20
-7 -20 -1 0 10 -19 9 -37 -2 -8 -5 -13 -3 -13 4 0 7 -4 8 -12 2 -7 -5 -34 -9
-60 -8 -25 0 -44 -3 -42 -7 3 -5 10 -5 16 -2 6 4 8 3 5 -3 -7 -11 -36 -11 -55
1 -7 4 -12 2 -12 -6 0 -8 -3 -9 -8 -3 -9 12 -42 16 -42 4 0 -4 -9 -6 -20 -4
-11 2 -18 0 -15 -6 4 -5 -5 -13 -18 -18 -14 -6 -32 -19 -40 -31 -8 -11 -18
-20 -23 -19 -21 4 -28 -2 -14 -12 12 -9 11 -10 -7 -6 -16 3 -23 0 -23 -9 0 -8
-5 -14 -11 -14 -7 0 -18 -8 -26 -17 -10 -12 -12 -13 -8 -3 4 8 0 6 -9 -4 -8
-10 -13 -22 -11 -27 3 -4 -5 -5 -17 -1 -14 3 -19 2 -14 -6 4 -7 0 -15 -9 -18
-13 -6 -14 -8 -3 -15 10 -7 10 -9 -3 -9 -11 0 -15 -8 -13 -26 2 -20 0 -23 -11
-14 -12 10 -13 6 -5 -19 5 -19 5 -29 -1 -26 -5 4 -9 -1 -9 -9 0 -9 -12 -19
-26 -22 -19 -5 -22 -9 -12 -15 10 -7 10 -9 -2 -10 -8 0 -30 -2 -48 -3 -26 -2
-32 1 -27 13 4 11 0 10 -15 -4 -20 -18 -21 -18 -14 0 5 11 4 16 -3 12 -5 -4
-19 0 -29 8 -23 17 -34 19 -34 4 0 -5 5 -7 12 -3 7 5 8 3 3 -6 -6 -10 -12 -8
-27 9 -16 21 -18 21 -19 5 0 -15 -2 -16 -7 -4 -10 23 -43 25 -35 3 5 -15 3
-15 -10 2 -13 15 -17 16 -17 5 -1 -12 -3 -12 -14 2 -7 10 -16 15 -19 11 -4 -3
-14 0 -24 8 -14 12 -16 12 -8 0 6 -11 5 -12 -6 -5 -23 14 -58 13 -52 -2 3 -8
-3 -12 -15 -11 -12 0 -18 5 -16 9 3 5 -8 11 -25 14 -16 4 -32 12 -35 20 -3 7
-14 11 -26 9 -11 -2 -18 0 -15 6 6 8 0 10 -44 13 -8 1 -16 7 -19 14 -2 6 -8
10 -13 6 -5 -3 -9 0 -9 7 0 10 -3 10 -12 1 -8 -8 -17 -8 -30 -1 -10 5 -23 7
-28 4 -5 -3 -12 0 -16 6 -5 8 -3 9 7 4 8 -5 11 -4 6 1 -8 9 -16 10 -73 13 -14
0 -22 5 -19 11 4 6 -6 10 -24 10 -16 0 -31 4 -33 9 -2 5 -14 11 -28 13 -14 1
-27 6 -30 9 -3 3 -23 11 -45 16 -22 5 -39 14 -38 19 1 5 -10 9 -23 9 -13 0
-24 -4 -24 -9 0 -4 -9 2 -21 15 -11 13 -17 17 -13 9 6 -12 4 -13 -7 -3 -7 7
-21 13 -32 13 -10 0 -15 4 -12 10 3 5 0 7 -8 4 -9 -3 -16 3 -20 16 -4 16 -2
19 7 11 9 -8 13 -7 14 4 1 8 3 22 4 30 1 12 4 12 17 2 9 -8 12 -8 8 -1 -4 7 0
15 9 18 9 4 13 2 8 -5 -4 -7 1 -7 16 1 14 7 19 17 16 27 -6 14 -4 14 11 2 11
-9 14 -10 9 -1 -4 7 -2 12 7 12 8 0 18 7 21 16 4 9 9 14 12 11 4 -3 14 2 23
11 9 10 12 11 6 3 -7 -10 0 -8 20 5 39 25 65 51 58 58 -3 3 4 4 15 1 16 -3 19
0 15 12 -4 10 -2 14 4 10 6 -4 18 0 26 8 9 8 20 15 25 15 5 0 15 7 22 15 7 9
19 14 26 11 8 -3 11 0 7 10 -3 9 1 14 12 14 9 0 14 4 10 9 -3 6 4 15 15 21 11
6 18 16 14 21 -4 6 4 5 17 -2 23 -12 23 -11 9 6 -9 11 -10 16 -2 11 6 -4 12
-3 12 2 0 6 8 9 18 8 9 0 16 4 15 11 -2 7 6 10 18 8 16 -3 19 0 15 12 -5 13
-4 14 9 3 13 -11 14 -10 8 6 -6 17 -5 18 12 4 10 -8 16 -10 13 -5 -3 6 0 16 8
23 8 7 14 9 14 5 0 -4 7 0 15 11 7 10 18 15 24 11 6 -3 11 -1 11 5 0 6 5 8 10
5 6 -3 10 1 10 10 0 9 4 14 8 11 5 -3 19 4 30 15 12 11 22 17 22 14 0 -4 7 1
16 9 8 9 20 14 25 10 5 -3 12 2 15 10 3 9 10 13 15 10 9 -5 13 10 10 30 -1 5
4 4 13 -3 16 -14 32 2 20 21 -4 6 -3 8 4 4 6 -3 13 -2 17 4 4 6 11 7 17 4 7
-4 8 -2 4 4 -4 7 -2 12 4 12 6 0 8 5 4 12 -4 7 -3 8 5 4 6 -4 14 0 17 9 6 13
8 14 15 3 7 -11 9 -11 9 0 0 16 24 42 39 42 6 0 10 4 9 9 -2 5 0 8 4 7 12 -2
40 43 33 53 -3 6 3 8 14 6 15 -3 19 2 16 21 -2 20 0 22 12 13 11 -10 12 -8 7
6 -5 13 -4 16 4 11 7 -4 12 -1 12 9 0 9 4 14 9 10 6 -3 15 4 21 15 6 12 16 18
23 13 8 -4 7 -1 -1 10 -12 14 -11 16 7 12 14 -2 18 1 14 11 -3 9 1 14 12 14 9
0 13 5 10 10 -3 6 1 10 11 10 12 0 15 6 11 21 -5 20 -5 20 13 4 17 -15 18 -15
16 2 0 11 5 18 16 17 10 -1 15 2 12 8 -8 13 45 60 59 51 7 -4 6 0 -2 10 -12
15 -11 17 5 17 16 0 17 2 4 10 -11 7 -11 10 -2 10 7 0 10 5 6 12 -4 7 -3 8 5
4 6 -4 18 -1 26 8 11 11 12 16 2 20 -6 3 -3 5 8 5 35 -2 38 1 24 18 -10 11
-10 14 -1 9 7 -4 12 -2 12 4 0 6 5 8 12 4 7 -5 9 -2 5 8 -4 11 2 18 18 22 18
5 22 11 18 23 -4 11 -3 14 5 9 7 -4 12 -2 12 4 0 6 5 8 13 4 9 -6 9 -5 0 7
-11 13 -8 20 13 38 13 12 22 25 20 30 -3 5 2 15 11 22 14 12 16 12 8 -1 -8
-13 -6 -13 7 -2 9 7 15 23 13 35 -4 22 -4 22 11 2 11 -14 15 -15 14 -5 -4 28
0 41 10 35 6 -3 10 1 10 10 0 10 5 13 13 9 7 -5 7 -2 -2 10 -12 15 -12 17 0
14 8 -2 13 3 11 11 -2 8 3 11 11 8 12 -4 15 5 19 50 1 7 6 11 12 10 5 -1 10 3
11 8 0 6 4 16 8 23 5 6 5 17 1 24 -5 7 -3 8 6 3 10 -6 12 -4 7 8 -3 9 -1 19 5
23 6 4 8 3 4 -4 -3 -6 -3 -13 2 -16 8 -5 10 1 14 43 1 11 6 17 11 14 5 -3 11
4 14 16 3 11 9 18 14 15 5 -3 9 2 9 11 0 9 -4 13 -10 10 -5 -3 -10 -1 -10 4 0
6 10 11 21 11 17 0 19 3 10 14 -9 11 -9 16 0 22 8 4 9 3 5 -4 -4 -7 -3 -12 2
-12 13 0 43 70 36 82 -4 7 -2 8 4 4 7 -4 12 -1 12 8 0 39 17 69 33 59 8 -5 8
-2 -1 9 -10 13 -10 17 3 22 13 4 14 10 5 26 -9 17 -7 22 12 30 13 5 16 9 8 9
-10 1 -8 5 7 16 21 15 29 65 9 61 -6 -2 -8 -1 -4 1 4 3 10 4 13 4 10 -2 33 24
29 31 -3 4 -12 5 -22 2 -15 -5 -15 -5 1 6 9 6 21 9 25 6 5 -3 9 1 9 9 0 8 -5
12 -10 8 -5 -3 -4 4 2 14 6 11 7 24 3 28 -4 5 -1 5 6 1 7 -4 9 -13 6 -19 -4
-7 -3 -8 1 -4 14 12 15 37 2 37 -8 0 -8 3 1 9 7 4 12 14 10 22 -2 8 3 13 11
11 12 -3 12 0 1 12 -11 15 -7 20 12 17 4 0 4 9 -1 22 -9 25 -4 50 10 41 5 -3
10 6 11 20 0 14 1 32 2 39 1 6 8 17 16 24 8 7 11 13 6 13 -5 0 -3 7 4 15 10
12 10 15 -1 15 -9 0 -10 3 -4 8 6 4 16 17 23 29 10 19 10 23 0 23 -8 0 -9 3
-3 8 14 10 39 56 27 48 -6 -3 -12 1 -16 9 -3 8 0 17 6 21 7 5 8 2 3 -6 -5 -9
-4 -11 4 -6 9 6 9 11 -1 24 -11 13 -11 14 1 7 11 -6 13 -4 8 9 -4 10 -2 26 3
37 8 14 7 19 -2 19 -9 0 -9 3 2 10 8 5 10 10 4 10 -6 0 -11 6 -11 14 0 8 6 12
12 10 7 -3 12 7 13 23 1 15 3 42 5 59 1 19 7 30 13 27 8 -3 10 5 6 23 -4 20
-2 25 8 19 8 -5 11 -4 6 3 -3 6 -1 14 5 17 5 4 8 13 5 21 -3 8 0 14 7 14 8 0
9 2 1 8 -12 7 -11 23 1 62 5 16 4 20 -5 15 -9 -6 -9 -3 -1 14 7 12 9 26 6 31
-3 5 2 13 11 18 15 8 14 10 -2 16 -14 5 -15 9 -5 15 10 6 9 12 -6 26 -17 18
-17 19 1 12 15 -6 17 -4 11 10 -15 36 -14 65 1 59 10 -4 13 -2 7 7 -11 18 -13
38 -2 31 5 -3 9 2 9 11 0 9 4 14 8 11 5 -3 8 6 8 20 -1 14 -8 29 -16 34 -13 8
-13 10 0 10 9 0 16 9 17 20 1 11 -2 18 -7 15 -4 -3 -10 2 -14 10 -3 8 0 14 6
12 6 -1 13 4 16 12 3 10 0 11 -9 5 -11 -6 -12 -5 -2 7 10 12 10 18 1 27 -8 8
-8 12 -1 12 6 0 10 14 9 30 0 17 -4 30 -9 30 -4 0 -5 5 -2 10 4 6 10 8 14 5 5
-2 6 7 3 20 -2 15 -9 22 -16 18 -6 -4 -5 1 2 10 8 9 11 25 7 38 -5 15 -4 19 5
14 9 -6 9 -3 2 12 -6 11 -7 25 -2 33 5 8 5 21 1 29 -5 9 -6 22 -3 30 3 8 0 11
-7 7 -6 -4 -11 -2 -11 3 0 6 5 11 11 11 8 0 7 6 -2 17 -8 9 -9 14 -3 10 7 -4
11 5 12 23 0 17 -4 30 -9 30 -5 0 -9 5 -9 11 0 5 5 7 10 4 6 -3 10 3 10 14 0
12 -6 21 -12 21 -10 0 -9 3 1 9 10 7 11 13 1 31 -8 15 -8 20 -1 16 6 -4 11 -2
11 3 0 6 -6 11 -12 11 -9 0 -8 4 2 10 13 8 13 10 -1 10 -9 0 -16 7 -16 15 0 8
4 12 8 9 4 -2 10 0 14 6 3 5 -1 10 -9 10 -11 0 -14 13 -13 60 2 41 -1 59 -9
56 -7 -3 -10 6 -8 25 2 17 -1 29 -8 29 -7 0 -3 7 8 15 10 9 13 14 5 13 -15 -3
-24 29 -11 37 5 3 2 21 -6 40 -17 41 -17 48 -3 39 6 -3 4 4 -4 17 -9 13 -15
39 -13 57 1 17 -1 32 -6 32 -4 0 -8 5 -8 11 0 5 5 7 10 4 16 -10 11 0 -15 30
-16 20 -21 33 -14 41 6 8 4 16 -8 25 -16 13 -17 12 -4 -4 12 -15 12 -17 -3
-11 -19 7 -20 15 -3 33 7 9 7 11 1 8 -16 -9 -22 10 -18 51 3 21 -1 32 -9 32
-7 0 -8 3 -2 8 14 10 18 35 4 26 -7 -4 -9 0 -5 14 4 12 2 23 -5 28 -8 5 -10 3
-4 -7 5 -8 4 -11 0 -6 -11 10 -13 57 -2 50 5 -3 2 8 -7 25 -8 16 -12 32 -9 36
4 3 1 6 -6 6 -7 0 -10 10 -7 26 4 18 1 24 -8 21 -9 -4 -13 4 -14 21 0 60 -2
72 -13 72 -5 0 -7 -6 -3 -12 5 -9 2 -9 -9 1 -18 14 -23 26 -8 16 5 -3 12 -1
16 5 3 5 2 10 -3 10 -5 0 -9 10 -8 23 1 12 -5 28 -14 35 -8 8 -10 11 -3 8 6
-4 15 -2 18 4 4 6 3 10 -2 9 -4 -1 -15 -1 -23 0 -11 1 -11 4 -2 13 15 15 16
32 2 23 -5 -3 -10 1 -10 9 0 8 -10 25 -22 37 -13 12 -17 19 -10 14 11 -6 11
-3 1 13 -7 12 -18 18 -24 14 -5 -3 -4 2 4 12 13 15 12 18 -7 23 -12 3 -19 9
-16 14 3 5 0 9 -6 9 -6 0 -8 5 -5 10 3 6 1 10 -6 10 -7 0 -9 8 -6 21 5 17 3
18 -9 8 -13 -10 -13 -8 -4 15 5 15 6 25 1 22 -5 -3 -11 3 -14 14 -8 31 -7 35
10 32 8 -2 12 1 9 6 -3 6 0 13 6 15 8 3 6 6 -5 6 -9 1 -16 7 -15 14 2 6 -3 11
-11 9 -12 -3 -12 0 -2 12 8 10 9 16 1 21 -6 3 -8 11 -4 16 3 5 10 7 15 4 5 -4
9 -1 9 5 0 6 5 8 13 4 8 -5 7 -2 -2 9 -12 15 -12 17 3 11 12 -5 15 -2 10 10
-5 12 -2 15 12 9 13 -5 15 -3 9 8 -7 11 -5 11 10 -1 17 -14 18 -13 12 3 -8 21
-3 22 17 1 10 -10 16 -11 16 -3 0 8 4 8 15 -1 13 -11 14 -10 8 6 -6 16 -5 17
9 6 14 -11 17 -10 23 7 4 13 13 18 25 16 11 -2 20 0 20 6 0 5 7 9 16 9 9 0 12
5 8 13 -6 9 -4 9 8 -1 14 -11 18 -10 26 3 5 9 13 18 18 18 5 1 8 6 6 10 -1 4
7 3 18 -3 17 -9 20 -8 20 7 0 15 2 16 10 3 8 -13 14 -8 12 11 0 3 13 4 29 3
16 -1 32 3 36 9 4 6 1 7 -8 2 -8 -5 -11 -4 -6 1 5 5 12 9 15 9 4 0 13 4 21 9
10 6 12 5 7 -2 -7 -11 14 -8 39 7 6 3 16 6 24 8 8 1 17 7 22 14 4 7 17 13 29
14 13 1 27 10 32 19 7 13 13 14 23 6 11 -9 17 -7 26 8 7 12 19 17 31 14 10 -2
18 1 18 9 0 7 3 9 6 6 11 -11 45 13 38 26 -5 9 -4 9 6 0 10 -9 16 -8 27 3 18
17 36 19 28 2 -3 -7 2 -3 11 10 9 12 25 22 36 22 10 0 16 5 13 10 -6 9 8 14
29 11 4 -1 14 3 20 9 7 5 16 7 20 3 4 -4 4 0 0 10 -4 13 -1 17 14 17 15 0 20
5 17 19 -3 14 1 18 11 14 9 -3 14 1 14 13 0 16 2 17 10 4 8 -12 10 -10 10 9 0
17 4 22 16 17 14 -5 15 -4 5 8 -10 12 -8 14 11 10 21 -5 21 -4 5 6 -17 11 -17
13 -2 30 9 10 14 23 11 29 -3 5 -2 21 4 35 6 18 6 26 -1 26 -6 0 -7 5 -4 10 4
6 12 7 18 3 7 -3 3 4 -7 16 -19 21 -19 21 -1 15 13 -5 16 -4 11 4 -4 7 -2 12
6 12 10 0 10 2 -1 9 -9 6 -10 10 -2 16 9 5 9 10 0 21 -8 10 -8 14 0 14 7 0 10
10 7 24 -3 17 -1 23 8 20 7 -3 13 2 13 10 0 8 -5 12 -10 9 -6 -4 -7 -1 -1 8 5
8 7 22 5 33 -1 10 2 16 7 12 6 -3 6 10 2 33 -6 33 -5 38 9 33 14 -5 14 -4 1
13 -9 11 -10 16 -2 11 6 -4 12 -3 12 2 0 6 -8 13 -17 17 -17 6 -17 7 1 21 13
9 15 14 6 14 -11 0 -11 3 -2 12 7 7 12 17 12 23 0 5 -5 3 -10 -5 -6 -9 -10
-10 -10 -3 0 6 5 15 11 19 8 4 7 9 -2 15 -11 7 -11 9 -1 9 7 0 12 8 11 18 -5
53 2 113 13 106 7 -5 8 -3 2 7 -13 21 -13 58 1 53 8 -3 10 7 9 31 -2 19 1 35
6 35 6 0 10 5 10 11 0 5 -4 7 -10 4 -6 -3 -7 1 -4 9 3 9 11 16 18 17 6 0 2 4
-9 9 -18 8 -19 9 -1 9 10 1 16 6 13 14 -15 35 -18 51 -9 39 7 -11 10 -9 15 8
4 17 2 20 -10 16 -13 -5 -14 -4 -3 9 7 8 9 22 6 31 -5 12 -2 15 9 10 9 -3 13
-2 10 4 -10 17 -11 91 -1 97 5 4 6 1 1 -7 -6 -9 -4 -11 4 -5 9 5 10 10 2 18
-15 15 -14 30 2 21 9 -6 9 -4 -1 8 -10 13 -10 17 0 21 10 4 10 8 -2 16 -9 6
-10 11 -3 11 6 0 10 13 9 31 -1 17 4 38 12 45 8 9 9 14 2 14 -6 0 -8 5 -3 13
4 6 6 20 4 31 -2 13 1 16 11 10 10 -6 10 -5 -1 9 -11 14 -11 18 3 23 15 6 15
7 0 19 -15 10 -15 13 -2 18 11 4 14 15 12 37 -2 17 0 29 5 26 5 -3 6 9 2 27
-3 17 -5 41 -5 52 1 11 2 38 3 60 1 30 4 36 11 25 5 -8 10 -10 10 -4 0 6 -3
14 -7 18 -13 13 -11 37 3 43 11 4 12 9 4 18 -8 9 -7 17 3 27 16 16 28 68 16
68 -5 0 -9 5 -9 11 0 5 6 7 13 3 7 -5 6 0 -3 11 -9 11 -10 16 -2 11 17 -10 15
4 -5 28 -17 20 -17 20 0 7 20 -15 22 -9 6 21 -9 16 -8 19 1 13 10 -6 11 -1 6
18 -4 16 -1 27 7 30 6 3 7 6 1 6 -5 1 -9 16 -8 34 2 17 4 47 6 65 1 18 6 36
12 39 5 4 6 1 1 -7 -5 -9 -4 -11 4 -6 9 6 9 11 0 22 -8 10 -8 14 0 14 7 0 9
11 6 31 -3 18 -2 28 4 25 5 -4 12 -2 16 4 3 5 1 10 -6 10 -9 0 -9 3 1 14 6 8
10 25 8 38 -2 13 4 29 12 36 13 11 13 11 -1 7 -9 -4 -16 0 -16 9 0 8 7 12 16
9 11 -3 10 0 -3 11 -19 15 -19 16 -1 16 17 0 18 1 2 13 -15 11 -16 15 -2 41
11 20 12 33 5 40 -6 6 -4 16 7 28 16 18 16 18 -3 12 -16 -6 -17 -5 -6 7 6 7
12 17 12 22 0 4 -6 5 -12 1 -10 -6 -10 -4 -2 7 6 8 12 34 13 59 1 25 3 59 4
75 1 17 8 33 17 37 12 5 12 7 -4 7 -12 1 -16 6 -12 17 3 9 6 18 6 20 0 3 3 3
8 1 4 -3 7 11 6 31 0 21 4 43 9 50 6 8 5 12 -4 12 -11 0 -11 2 -2 8 7 4 15 26
18 47 4 22 9 48 12 59 4 14 2 16 -8 10 -12 -6 -12 -5 -1 8 7 9 11 28 8 42 -3
15 -1 24 4 21 4 -3 10 2 14 10 3 8 1 17 -5 21 -7 4 -6 10 1 19 6 7 7 21 3 30
-3 10 -2 16 3 13 5 -4 9 5 9 18 0 16 -5 22 -13 19 -15 -5 -8 9 17 39 9 11 11
16 4 13 -8 -5 -11 0 -10 13 1 11 4 20 7 20 3 0 6 35 8 78 2 42 7 78 12 80 4 2
5 12 2 24 -4 16 -2 19 9 13 12 -7 12 -6 1 7 -8 10 -9 18 -3 22 6 4 8 13 4 21
-3 9 1 23 8 32 10 12 10 15 2 9 -7 -4 -13 -3 -13 3 0 5 5 13 11 17 8 4 7 9 -2
15 -9 5 -10 9 -3 9 7 0 15 7 18 16 5 14 4 15 -9 4 -13 -11 -14 -10 -9 4 3 9
11 16 18 16 6 0 4 5 -4 10 -8 5 -10 10 -4 10 7 0 9 11 6 25 -2 14 1 32 8 40
11 13 10 14 -2 10 -9 -4 -15 0 -15 9 0 8 4 13 8 10 4 -2 10 0 14 6 3 5 1 10
-4 10 -6 0 -11 4 -11 10 0 5 8 6 17 3 15 -6 16 -5 3 9 -8 9 -19 14 -23 11 -5
-3 -3 4 5 16 7 12 16 21 19 21 3 0 4 11 1 25 -2 14 1 31 7 39 9 11 9 16 0 22
-8 5 -9 3 -4 -6 6 -9 4 -11 -5 -5 -10 6 -9 11 5 22 11 7 14 13 9 13 -12 0 -12
29 0 48 4 7 2 12 -6 12 -9 0 -10 3 -2 8 6 4 11 22 10 40 -1 21 3 31 11 28 7
-3 10 1 6 9 -3 8 -10 12 -17 9 -6 -3 -2 2 8 10 15 12 16 16 5 16 -11 0 -12 2
0 9 9 6 10 11 3 15 -6 4 -9 13 -6 21 4 8 11 12 18 8 6 -4 6 0 -2 9 -10 13 -10
17 0 20 7 3 13 24 14 52 1 28 7 52 15 57 10 6 11 9 2 9 -7 0 -13 5 -13 11 0 5
6 7 13 3 10 -6 10 -4 0 7 -15 16 -17 33 -3 24 6 -4 9 3 6 17 -2 13 1 28 6 35
5 7 5 14 -1 17 -6 4 -7 14 -4 23 5 12 3 14 -8 9 -8 -4 -6 -1 4 7 18 15 18 16
0 26 -17 10 -17 10 1 11 15 0 16 3 6 15 -15 18 0 20 20 3 8 -7 4 0 -10 16 -14
16 -20 26 -13 22 6 -3 14 -2 18 4 3 5 1 10 -5 10 -6 0 -8 5 -5 10 3 6 0 10 -7
11 -7 0 -4 4 7 9 11 5 14 9 7 9 -7 1 -10 6 -7 11 4 6 12 7 18 4 9 -5 9 -3 0 6
-10 11 -9 16 5 27 9 8 11 12 5 8 -8 -4 -13 0 -13 9 0 9 5 16 10 16 6 0 10 5
10 11 0 5 -5 7 -11 3 -6 -3 -3 6 7 22 11 15 17 31 16 34 -16 24 -23 42 -14 36
13 -8 22 17 12 34 -5 8 -4 22 1 32 7 12 6 18 -1 18 -6 0 -4 13 6 31 8 17 11
28 6 25 -6 -4 -13 -2 -17 4 -3 5 1 10 9 10 8 0 18 5 22 12 4 6 3 8 -3 5 -6 -4
-10 4 -10 18 0 14 3 22 8 20 4 -3 11 -1 14 5 4 6 3 10 -2 9 -22 -4 -25 3 -9
20 13 14 14 21 5 27 -8 5 -10 3 -4 -6 5 -9 4 -11 -4 -6 -9 6 -9 11 0 22 9 11
9 17 0 28 -10 11 -8 16 5 24 10 6 19 24 20 41 2 22 -1 29 -9 24 -7 -4 -6 1 2
10 7 9 20 17 28 17 8 0 12 3 10 8 -4 5 50 7 106 3 5 -1 5 -6 1 -12 -3 -6 6 -3
22 7 28 18 29 18 14 0 -14 -18 -14 -19 15 -4 17 9 38 14 48 12 10 -1 21 4 23
11 3 7 14 12 25 10 10 -2 19 1 19 7 0 6 3 8 7 5 3 -4 13 -1 21 6 13 10 15 9 8
-3 -6 -11 -4 -11 6 1 7 9 21 15 31 13 10 -1 17 4 17 14 0 15 2 15 10 2 8 -12
10 -12 10 -1 0 8 7 11 19 8 15 -3 18 -1 14 11 -5 11 -2 14 10 9 12 -4 14 -2
10 10 -4 11 -2 14 5 9 7 -4 12 -2 12 3 0 6 6 10 13 8 7 -1 12 7 11 21 -1 16 4
22 20 22 13 0 17 3 9 8 -13 8 -2 34 13 33 5 0 8 7 8 15 -2 12 1 12 14 2 12
-10 14 -10 8 0 -4 7 -1 15 8 18 9 3 16 13 16 21 0 8 5 11 10 8 6 -3 10 1 10
10 0 11 5 15 16 11 8 -3 12 -2 9 4 -3 5 4 14 15 20 11 6 18 15 15 21 -4 5 1 9
9 9 9 0 16 6 16 14 0 7 9 20 20 27 12 8 22 25 22 39 1 14 6 31 11 38 6 8 6 12
-2 12 -6 0 -11 4 -11 10 0 5 7 7 16 3 14 -5 15 -3 5 15 -9 16 -8 24 5 36 14
15 11 20 -9 17 -5 -1 -6 3 -2 9 3 6 10 8 15 5 4 -3 11 2 14 10 3 9 -1 18 -9
22 -13 5 -13 7 2 19 17 13 17 14 -2 8 -20 -6 -20 -5 -1 10 20 16 20 16 0 16
-16 0 -17 2 -4 10 10 6 11 10 3 10 -7 0 -13 5 -13 11 0 5 6 7 13 3 8 -5 8 -2
-2 9 -11 14 -11 17 0 17 11 0 11 2 -1 10 -13 9 -13 10 0 10 11 1 10 4 -4 15
-12 9 -15 15 -7 15 7 0 11 6 8 15 -4 8 -2 17 3 20 4 3 0 22 -10 43 -14 29 -16
40 -7 51 9 12 9 13 0 7 -8 -4 -13 -1 -13 9 0 20 -25 47 -34 37 -4 -3 -4 1 0
11 3 10 1 17 -6 17 -6 0 -8 5 -5 10 3 6 1 10 -5 10 -6 0 -9 4 -6 9 3 5 -1 12
-9 15 -10 4 -14 14 -11 31 3 15 1 23 -5 19 -16 -10 -37 15 -34 41 2 20 -1 23
-15 15 -13 -7 -20 -5 -24 6 -3 8 -11 12 -17 8 -8 -4 -9 -3 -5 5 6 9 12 9 24
-1 12 -9 11 -6 -2 10 -11 12 -27 22 -37 22 -10 0 -23 9 -29 21 -9 16 -14 18
-26 8 -11 -9 -14 -8 -14 4 0 18 -58 50 -74 40 -6 -4 -4 2 4 12 9 11 10 16 2
11 -7 -4 -15 -1 -18 8 -3 9 -14 16 -23 16 -9 0 -22 5 -29 12 -8 8 -15 8 -28
-3 -15 -12 -17 -12 -9 0 6 11 4 13 -8 8 -12 -4 -17 -1 -17 11 0 14 -2 15 -9 3
-8 -12 -14 -13 -36 -3 -14 7 -24 8 -21 4 8 -13 -30 -7 -48 7 -8 7 -20 10 -26
6 -5 -3 -10 -1 -10 6 0 10 -3 10 -11 2 -6 -6 -18 -9 -27 -6 -10 4 -13 2 -8 -5
3 -6 1 -14 -6 -18 -7 -4 -10 -4 -6 1 4 4 3 14 -3 21 -9 11 -16 11 -33 2 -25
-14 -26 -13 -37 4 -7 10 -9 10 -9 0z m-15279 -755 c-10 -9 -11 -8 -5 6 3 10 9
15 12 12 3 -3 0 -11 -7 -18z m1264 -6 c3 -5 2 -12 -3 -15 -5 -3 -9 1 -9 9 0
17 3 19 12 6z m13961 -1066 c-1 -8 -5 -17 -8 -21 -5 -4 -4 16 1 34 3 9 9 -1 7
-13z m-14531 -224 c3 -5 2 -12 -3 -15 -5 -3 -9 1 -9 9 0 17 3 19 12 6z m14460
-299 c-3 -3 -11 0 -18 7 -9 10 -8 11 6 5 10 -3 15 -9 12 -12z m-9910 -842 c3
-5 1 -10 -4 -10 -6 0 -11 5 -11 10 0 6 2 10 4 10 3 0 8 -4 11 -10z m1759 -946
c3 -8 2 -12 -4 -9 -6 3 -10 10 -10 16 0 14 7 11 14 -7z m7811 -964 c3 -5 1
-10 -4 -10 -6 0 -11 5 -11 10 0 6 2 10 4 10 3 0 8 -4 11 -10z m-1088 -2452
c-3 -8 -6 -5 -6 6 -1 11 2 17 5 13 3 -3 4 -12 1 -19z m-6660 -1783 c0 -8 -4
-12 -9 -9 -5 3 -6 10 -3 15 9 13 12 11 12 -6z m3117 -207 c-13 -20 -15 -48 -5
-48 6 0 13 5 17 12 4 7 3 8 -4 4 -8 -5 -10 -2 -6 8 8 21 23 11 21 -14 -1 -10
-5 -16 -11 -13 -5 4 -7 -1 -3 -10 3 -9 1 -19 -5 -23 -6 -4 -8 -3 -4 4 3 6 2
13 -3 17 -6 3 -8 -6 -5 -21 5 -25 3 -26 -13 -13 -16 13 -17 12 -4 -3 8 -11 10
-24 5 -35 -4 -10 -8 -25 -8 -33 -1 -8 -12 -16 -24 -18 -17 -3 -23 -9 -19 -21
3 -14 -1 -18 -22 -17 -20 1 -26 -4 -25 -20 0 -16 -5 -20 -23 -18 -13 1 -21 -2
-18 -6 3 -5 -4 -12 -16 -15 -11 -4 -18 -9 -15 -12 3 -3 17 2 31 11 14 9 25 12
25 7 0 -5 -9 -12 -20 -16 -11 -3 -19 -9 -19 -13 3 -20 -3 -23 -18 -11 -15 12
-16 12 -9 -5 7 -20 7 -20 -15 0 l-22 19 18 -27 c9 -15 22 -25 28 -21 6 4 7 1
3 -6 -6 -9 -13 -8 -29 6 -11 10 -17 13 -14 6 10 -16 -20 -43 -43 -38 -11 2
-18 0 -15 -5 3 -5 14 -7 25 -5 11 2 20 0 20 -6 0 -5 -9 -9 -20 -9 -14 0 -18
-5 -14 -17 5 -15 3 -15 -10 2 -16 19 -17 19 -14 -5 2 -16 -2 -25 -12 -26 -8
-1 -21 -2 -27 -3 -7 0 -13 -7 -13 -15 0 -7 -8 -20 -17 -27 -9 -8 -14 -9 -10
-3 4 7 0 15 -9 18 -8 3 -12 2 -9 -3 3 -5 1 -12 -5 -16 -5 -3 -10 -1 -10 5 0 6
-4 9 -10 5 -5 -3 -6 -13 -3 -23 6 -16 6 -16 -11 1 -23 22 -30 22 -23 -4 4 -16
3 -18 -8 -9 -10 8 -16 7 -24 -7 -6 -10 -11 -13 -11 -6 0 6 -9 9 -20 6 -11 -3
-18 -9 -15 -13 3 -5 0 -12 -6 -16 -8 -4 -9 -3 -5 4 4 7 1 12 -9 12 -11 0 -15
-5 -12 -15 5 -12 2 -12 -19 -3 -13 6 -23 18 -22 27 2 10 -3 15 -12 13 -8 -2
-11 0 -7 5 5 4 13 9 18 9 5 1 14 2 20 3 5 0 8 5 5 9 -2 4 4 9 15 9 13 1 19 -5
19 -18 0 -11 -5 -17 -10 -14 -6 4 -7 11 -4 17 4 7 2 8 -4 4 -6 -4 -8 -14 -5
-24 6 -15 4 -15 -9 -4 -14 11 -16 11 -14 -2 1 -9 6 -19 11 -23 4 -4 5 -2 1 5
-4 7 -4 11 1 10 4 -1 18 1 30 5 15 6 20 15 19 32 -3 18 1 23 16 20 11 -3 26
-9 34 -16 10 -8 14 -8 14 0 0 6 -4 11 -10 11 -5 0 -10 9 -10 20 0 11 5 20 11
20 5 0 8 -4 4 -9 -3 -5 -1 -12 4 -15 5 -3 8 7 7 24 -2 22 1 27 10 19 9 -7 16
-5 24 8 9 16 10 15 4 -6 -5 -21 -4 -22 9 -10 8 8 12 20 10 27 -3 7 0 12 8 10
9 -2 13 4 11 17 -2 16 -1 17 7 5 7 -9 7 -18 1 -24 -13 -13 -12 -26 2 -26 6 0
8 3 5 7 -10 9 24 44 35 37 6 -4 7 2 3 15 -3 12 -3 21 2 20 4 -1 14 -1 22 0 11
1 11 4 0 18 -13 15 -12 15 8 5 19 -11 21 -10 18 8 -3 18 0 20 18 14 20 -6 21
-5 7 11 -10 12 -10 16 -2 11 7 -4 20 -5 29 -2 13 5 13 9 2 23 -12 15 -12 16 4
10 11 -4 17 -2 17 8 0 8 5 15 11 15 5 0 7 -5 3 -12 -4 -6 -3 -8 4 -5 11 8 11
24 -2 47 -7 12 -6 13 5 3 19 -18 45 -17 30 1 -9 11 -6 13 16 10 25 -2 26 -1
11 10 -26 19 -22 29 5 15 l22 -12 -20 23 -20 23 22 -11 c12 -7 24 -17 27 -24
3 -7 3 -1 1 14 -2 15 -6 31 -9 36 -3 5 1 9 9 9 8 0 12 -4 9 -8 -2 -4 0 -10 5
-13 11 -7 9 13 -2 32 -5 7 -13 9 -19 6 -7 -4 -8 -2 -4 5 4 6 11 9 16 6 5 -3
14 3 20 12 10 16 10 15 5 -4 -4 -14 -2 -23 5 -23 6 0 8 5 5 10 -3 6 -1 10 5
10 6 0 8 5 5 10 -3 6 -2 10 4 10 5 0 11 -6 14 -12 2 -7 5 -1 6 15 3 50 4 56
13 51 4 -3 8 0 8 7 0 7 3 10 6 6 3 -3 2 -12 -2 -19z m37 -5 c13 -16 12 -17 -3
-4 -17 13 -22 21 -14 21 2 0 10 -8 17 -17z m-16 -103 c-1 -11 -4 -22 -7 -25
-4 -5 -4 34 1 43 4 8 7 -1 6 -18z m-110 -149 c-6 -5 -25 10 -25 20 0 5 6 4 14
-3 8 -7 12 -15 11 -17z m-272 -116 c-3 -9 -8 -14 -10 -11 -3 3 -2 9 2 15 9 16
15 13 8 -4z m43 -97 c4 -7 3 -8 -4 -4 -7 4 -12 2 -12 -5 0 -7 -3 -10 -6 -6 -6
5 3 27 11 27 2 0 7 -5 11 -12z m348 -106 c3 -5 -1 -9 -9 -9 -8 0 -12 4 -9 9 3
4 7 8 9 8 2 0 6 -4 9 -8z m-289 -231 c3 -5 2 -12 -3 -15 -5 -3 -9 1 -9 9 0 17
3 19 12 6z m-414 -28 c13 -16 12 -17 -3 -4 -17 13 -22 21 -14 21 2 0 10 -8 17
-17z m-10 -30 c13 -16 12 -17 -3 -4 -10 7 -18 15 -18 17 0 8 8 3 21 -13z
m4174 -142 c-3 -6 -11 -11 -17 -11 -6 0 -6 6 2 15 14 17 26 13 15 -4z m-108
-226 c0 -8 -4 -12 -9 -9 -5 3 -6 10 -3 15 9 13 12 11 12 -6z m-7000 -1285 c-4
-15 0 -20 16 -21 12 0 16 -3 9 -6 -23 -9 -41 5 -35 26 3 12 8 21 10 21 3 0 3
-9 0 -20z m37 5 c3 -8 1 -15 -4 -15 -6 0 -10 7 -10 15 0 8 2 15 4 15 2 0 6 -7
10 -15z m43 -5 c-2 -11 -14 -28 -28 -36 l-24 -16 23 21 c13 11 23 22 22 25 -1
18 1 26 5 26 3 0 3 -9 2 -20z m93 10 c8 -5 12 -11 10 -14 -3 -2 -14 2 -24 10
-22 15 -10 19 14 4z m-54 -12 c4 -7 3 -8 -4 -4 -7 4 -12 2 -12 -5 0 -7 -3 -10
-6 -6 -6 5 3 27 11 27 2 0 7 -5 11 -12z m33 -27 c9 -6 10 -11 2 -15 -6 -4 -11
-2 -11 5 0 6 -8 9 -20 6 -11 -3 -18 -1 -14 4 7 11 25 11 43 0z m5376 -221 c-3
-5 -12 -10 -18 -10 -7 0 -6 4 3 10 19 12 23 12 15 0z m-8825 -254 c0 -3 -4 -8
-10 -11 -5 -3 -10 -1 -10 4 0 6 5 11 10 11 6 0 10 -2 10 -4z m-780 -692 c0
-12 3 -14 13 -6 10 8 13 6 13 -8 0 -14 -4 -16 -17 -9 -19 10 -33 39 -19 39 6
0 10 -7 10 -16z m120 -114 c0 -5 -2 -10 -4 -10 -3 0 -8 5 -11 10 -3 6 -1 10 4
10 6 0 11 -4 11 -10z m5720 -824 c0 -3 -4 -8 -10 -11 -5 -3 -10 -1 -10 4 0 6
5 11 10 11 6 0 10 -2 10 -4z m-3320 -62 c0 -8 -19 -13 -24 -6 -3 5 1 9 9 9 8
0 15 -2 15 -3z m-125 -254 c3 -5 1 -10 -4 -10 -6 0 -11 5 -11 10 0 6 2 10 4
10 3 0 8 -4 11 -10z m7485 -391 c0 -5 -4 -9 -8 -9 -5 0 -9 7 -9 15 0 8 4 12 9
9 4 -3 8 -9 8 -15z m-7863 -44 c0 -8 -4 -12 -9 -9 -5 3 -6 10 -3 15 9 13 12
11 12 -6z m7803 -821 c0 -8 -19 -13 -24 -6 -3 5 1 9 9 9 8 0 15 -2 15 -3z
m-1865 -1212 c-3 -3 -11 0 -18 7 -9 10 -8 11 6 5 10 -3 15 -9 12 -12z m-80
-82 c3 -5 1 -10 -4 -10 -6 0 -11 5 -11 10 0 6 2 10 4 10 3 0 8 -4 11 -10z
m-70 -130 c-3 -5 -11 -10 -16 -10 -6 0 -7 5 -4 10 3 6 11 10 16 10 6 0 7 -4 4
-10z m2815 -150 c0 -5 -5 -10 -11 -10 -5 0 -7 5 -4 10 3 6 8 10 11 10 2 0 4
-4 4 -10z m-1848 -82 c-7 -7 -12 -8 -12 -2 0 14 12 26 19 19 2 -3 -1 -11 -7
-17z m104 10 c-2 -14 -8 -18 -28 -18 -6 0 -3 7 8 15 23 18 23 18 20 3z m134
-3 c-14 -17 -30 -20 -30 -4 0 5 4 8 9 4 5 -3 12 -1 16 5 3 5 9 10 12 10 3 0 0
-7 -7 -15z m47 9 c-3 -3 -12 -4 -19 -1 -8 3 -5 6 6 6 11 1 17 -2 13 -5z m-131
-17 c8 3 14 3 14 0 0 -14 -30 -14 -41 1 -11 14 -11 15 0 5 7 -6 20 -9 27 -6z
m174 9 c0 -2 -7 -7 -16 -10 -8 -3 -12 -2 -9 4 6 10 25 14 25 6z m131 -13 c9
-9 7 -11 -7 -8 -11 2 -20 4 -21 5 -2 2 -7 3 -12 4 -22 3 -19 13 4 12 13 -1 30
-7 36 -13z m-1485 -180 c-2 -9 -9 -19 -17 -21 -11 -3 -11 -1 1 7 8 6 11 11 7
11 -5 0 -5 5 -2 10 9 15 14 12 11 -7z m19 -33 c3 -5 -1 -10 -10 -10 -9 0 -13
5 -10 10 3 6 8 10 10 10 2 0 7 -4 10 -10z m5 -26 c0 -8 -19 -13 -24 -6 -3 5 1
9 9 9 8 0 15 -2 15 -3z m-4920 -164 c-11 -7 -11 -10 -2 -10 7 0 10 -5 7 -10
-3 -6 1 -13 9 -16 9 -3 15 -16 14 -29 -2 -16 -7 -21 -21 -17 -17 4 -18 6 -3
14 17 10 13 28 -7 28 -7 0 -6 -4 3 -11 13 -9 13 -10 0 -6 -8 2 -14 10 -12 17
2 7 -3 17 -10 22 -10 6 -10 10 2 18 8 5 20 10 25 10 6 0 3 -5 -5 -10z m4975
-200 c3 -6 -1 -7 -9 -4 -18 7 -21 14 -7 14 6 0 13 -4 16 -10z m-3708 -121 c2
-16 -1 -19 -9 -11 -5 5 -7 15 -4 21 10 15 12 14 13 -10z m76 9 c-2 -5 -10 -8
-18 -8 -8 0 -16 3 -18 8 -3 4 5 7 18 7 13 0 21 -3 18 -7z m107 2 c0 11 3 10
11 -4 9 -15 13 -16 20 -5 7 11 9 11 9 1 0 -7 5 -10 12 -6 6 4 8 3 5 -2 -3 -6
-32 -10 -64 -9 -43 1 -60 -3 -65 -15 -6 -11 -7 -10 -5 5 1 14 10 20 26 20 14
0 26 6 29 14 4 11 6 11 13 0 7 -12 9 -11 9 1z m-235 -10 c3 -6 -1 -7 -9 -4
-18 7 -21 14 -7 14 6 0 13 -4 16 -10z m138 -14 c-10 -13 -21 -22 -26 -19 -4 2
3 13 15 23 30 26 32 25 11 -4z m-1023 10 c0 -2 -7 -9 -15 -16 -13 -11 -14 -10
-9 4 5 14 24 23 24 12z m920 -31 c0 -5 -5 -3 -10 5 -5 8 -10 20 -10 25 0 6 5
3 10 -5 5 -8 10 -19 10 -25z m55 26 c3 -5 0 -13 -6 -17 -7 -4 -9 -3 -5 4 3 5
0 13 -6 15 -9 4 -10 6 -1 6 6 1 14 -3 18 -8z m218 -16 c-3 -9 -8 -14 -10 -11
-3 3 -2 9 2 15 9 16 15 13 8 -4z m827 -19 c0 -2 -7 -7 -16 -10 -8 -3 -12 -2
-9 4 6 10 25 14 25 6z m2617 -12 c-3 -3 -12 -4 -19 -1 -8 3 -5 6 6 6 11 1 17
-2 13 -5z m-2 -23 c3 -5 2 -12 -3 -15 -5 -3 -9 1 -9 9 0 17 3 19 12 6z m-4435
-5 c0 -2 -7 -7 -16 -10 -8 -3 -12 -2 -9 4 6 10 25 14 25 6z m4437 -32 c-3 -3
-12 -4 -19 -1 -8 3 -5 6 6 6 11 1 17 -2 13 -5z m-1526 -561 c13 -16 12 -17 -3
-4 -10 7 -18 15 -18 17 0 8 8 3 21 -13z"/>
<path d="M12613 9597 c0 -7 9 -14 20 -14 11 -1 18 -1 16 0 -2 2 -11 8 -20 15
-12 9 -16 9 -16 -1z"/>
<path d="M12270 9316 c0 -2 8 -10 18 -17 15 -13 16 -12 3 4 -13 16 -21 21 -21
13z"/>
<path d="M12233 9290 c-1 -11 2 -20 7 -20 4 0 7 7 6 15 -3 23 -12 26 -13 5z"/>
<path d="M12163 9263 c4 -6 2 -13 -5 -15 -9 -3 -9 -6 0 -12 7 -4 12 -2 12 6 0
9 3 9 10 -2 5 -8 10 -10 10 -4 0 6 -8 18 -17 25 -9 8 -14 9 -10 2z"/>
<path d="M18430 19039 c0 -5 5 -7 10 -4 6 3 10 8 10 11 0 2 -4 4 -10 4 -5 0
-10 -5 -10 -11z"/>
<path d="M2725 18910 c-3 -6 1 -7 9 -4 18 7 21 14 7 14 -6 0 -13 -4 -16 -10z"/>
<path d="M2455 18480 c3 -5 8 -10 11 -10 2 0 4 5 4 10 0 6 -5 10 -11 10 -5 0
-7 -4 -4 -10z"/>
<path d="M18560 18480 c-9 -6 -10 -10 -3 -10 6 0 15 5 18 10 8 12 4 12 -15 0z"/>
<path d="M17768 17833 c7 -3 16 -2 19 1 4 3 -2 6 -13 5 -11 0 -14 -3 -6 -6z"/>
<path d="M14650 16979 c0 -5 5 -7 10 -4 6 3 10 8 10 11 0 2 -4 4 -10 4 -5 0
-10 -5 -10 -11z"/>
<path d="M3390 14801 c0 -6 4 -12 8 -15 5 -3 9 1 9 9 0 8 -4 15 -9 15 -4 0 -8
-4 -8 -9z"/>
<path d="M17347 14419 c7 -7 15 -10 18 -7 3 3 -2 9 -12 12 -14 6 -15 5 -6 -5z"/>
<path d="M16087 12109 c7 -7 15 -10 18 -7 3 3 -2 9 -12 12 -14 6 -15 5 -6 -5z"/>
<path d="M16353 11335 c0 -8 4 -12 9 -9 5 3 6 10 3 15 -9 13 -12 11 -12 -6z"/>
<path d="M16380 11246 c0 -2 7 -7 16 -10 8 -3 12 -2 9 4 -6 10 -25 14 -25 6z"/>
<path d="M15745 8000 c-3 -6 1 -7 9 -4 18 7 21 14 7 14 -6 0 -13 -4 -16 -10z"/>
<path d="M15890 5761 c0 -6 4 -13 10 -16 6 -3 7 1 4 9 -7 18 -14 21 -14 7z"/>
<path d="M14695 5600 c3 -5 8 -10 11 -10 2 0 4 5 4 10 0 6 -5 10 -11 10 -5 0
-7 -4 -4 -10z"/>
<path d="M15286 3433 c-6 -14 -5 -15 5 -6 7 7 10 15 7 18 -3 3 -9 -2 -12 -12z"/>
<path d="M15326 3412 c-3 -5 1 -9 9 -9 8 0 15 4 15 9 0 4 -4 8 -9 8 -6 0 -12
-4 -15 -8z"/>
<path d="M15640 3331 c0 -6 4 -13 10 -16 6 -3 7 1 4 9 -7 18 -14 21 -14 7z"/>
<path d="M12906 2278 c3 -5 10 -6 15 -3 13 9 11 12 -6 12 -8 0 -12 -4 -9 -9z"/>
<path d="M13070 2246 c0 -2 7 -7 16 -10 8 -3 12 -2 9 4 -6 10 -25 14 -25 6z"/>
<path d="M12836 2192 c-3 -5 1 -9 9 -9 8 0 12 4 9 9 -3 4 -7 8 -9 8 -2 0 -6
-4 -9 -8z"/>
<path d="M15655 2030 c-10 -11 -14 -20 -10 -20 5 0 4 -5 -3 -12 -15 -15 -15
-28 0 -28 6 0 8 3 5 7 -4 3 -2 12 4 20 6 7 8 13 5 13 -4 0 -1 6 6 14 7 8 16
12 21 9 4 -2 7 1 7 6 0 17 -15 13 -35 -9z"/>
<path d="M14470 1881 c0 -6 4 -13 10 -16 6 -3 7 1 4 9 -7 18 -14 21 -14 7z"/>
<path d="M15466 1782 c-3 -5 1 -9 9 -9 8 0 12 4 9 9 -3 4 -7 8 -9 8 -2 0 -6
-4 -9 -8z"/>
<path d="M12731 1772 c-1 -8 -6 -10 -13 -6 -10 5 -10 4 -1 -6 15 -16 28 -8 20
12 -4 11 -6 11 -6 0z"/>
<path d="M12790 1500 c0 -5 5 -10 10 -10 6 0 10 5 10 10 0 6 -4 10 -10 10 -5
0 -10 -4 -10 -10z"/>
<path d="M12818 1423 c6 -2 18 -2 25 0 6 3 1 5 -13 5 -14 0 -19 -2 -12 -5z"/>
<path d="M12830 1379 c0 -5 5 -7 10 -4 6 3 10 8 10 11 0 2 -4 4 -10 4 -5 0
-10 -5 -10 -11z"/>
<path d="M8026 1182 c-3 -5 1 -9 9 -9 8 0 12 4 9 9 -3 4 -7 8 -9 8 -2 0 -6 -4
-9 -8z"/>
<path d="M8195 1080 c-3 -6 1 -7 9 -4 18 7 21 14 7 14 -6 0 -13 -4 -16 -10z"/>
<path d="M8297 1043 c3 -7 6 -13 8 -13 2 0 5 6 8 13 3 8 -1 14 -8 14 -7 0 -11
-6 -8 -14z"/>
<path d="M8416 1001 c-3 -4 4 -7 14 -6 27 2 33 10 10 12 -11 1 -22 -2 -24 -6z"/>
<path d="M8593 949 c11 -17 14 -16 20 7 1 4 -6 8 -15 10 -14 2 -15 -1 -5 -17z"/>
<path d="M12800 960 c0 -6 7 -10 15 -10 8 0 15 2 15 4 0 2 -7 6 -15 10 -8 3
-15 1 -15 -4z"/>
</g>
</svg>
